<?xml version="1.0" encoding="utf-8"?>
<svg version="1.1" xmlns:xlink="http://www.w3.org/1999/xlink" width="78px" height="78px" xmlns="http://www.w3.org/2000/svg">
  <g transform="matrix(1 0 0 1 -253 -310 )">
    <path d="M 77.999390625 38.99999999999999  C 77.999466796875 17.46118359375  60.53881640625 0.000533203125  39 0.000533203125  C 17.461107421875 0.000533203125  0.00045703125 17.46118359375  0.00045703125 39.000076171875  C 0.00045703125 47.87966015625  2.96841796875 56.0658515625  7.96590234375 62.621431640625  C 9.998699101004522 65.28845177948186  12.365368389899867 67.6835623666061  15.007916015625 69.748072265625  C 17.6258671875 71.79366796875  20.511791015625 73.512029296875  23.604216796874997 74.84214257812499  C 28.327482421874997 76.87364648437499  33.532078125 77.99954296874999  38.999923828125 77.99954296874999  C 44.467693359375 77.99954296874999  49.67236523437499 76.873646484375  54.395554687499995 74.84214257812499  C 57.488056640625004 73.512029296875  60.373904296875 71.79366796875  62.991855468749996 69.74807226562498  C 65.63457830574603 67.6835176785618  68.00138043375398 65.2882997939388  70.03425 62.621126953125  C 75.031505859375 56.065470703125  77.999390625 47.879507812499995  77.999390625 38.99999999999999  Z M 63.687228515624994 62.99772070312501  C 63.574001343570345 63.1143394383435  63.45994375442557 63.23014902518442  63.345064453125 63.345140625  C 60.7342734375 65.95585546875  57.769664062500006 68.102759765625  54.50927929687499 69.748072265625  C 53.81732638117898 70.09740251912503  53.11383818286829 70.42339871141576  52.40000390624999 70.72550976562499  C 48.158296875 72.5195859375  43.649912109374995 73.42923046875  39 73.42923046875  C 34.350087890625005 73.42923046875  29.841626953125 72.5195859375  25.59999609375 70.72550976562499  C 24.88613676986209 70.42339880536296  24.182623191889707 70.09740262478584  23.49064453125 69.748072265625  C 20.230259765625 68.102759765625  17.26557421875 65.955931640625  14.654783203125 63.345140625000006  C 14.539923068688976 63.23010444900017  14.425865614309192 63.11426960775339  14.312619140625 62.99764453125  C 14.7959296875 62.78070703125001  15.3976875 62.561255859375  16.134498046875002 62.30600390625  C 16.774951171875 62.084039062500004  17.437875 61.854380859375006  18.103160156250002 61.5733828125  C 19.238654296875 61.094642578125  20.422669921875 60.585357421874996  21.61773046875 60.071654296874996  C 23.400000000000002 59.30559374999999  25.2418359375 58.514015625  26.949380859375 57.81193945312499  L 29.277421875 57.17590429687499  C 29.55328520171243 57.10075214387226  29.814417834735636 56.97939333464005  30.049728515625002 56.81698242187499  C 30.9955546875 56.16662695312499  31.7292421875 55.06967578124999  32.3946796875 53.80240429687499  C 32.453103515625 53.69180273437499  32.509089843750004 53.574802734374984  32.566294921875006 53.46214453124999  C 32.598058593750004 53.40014062499999  32.629060546875 53.33790820312499  32.660138671875 53.275751953124995  C 32.85290460930436 52.889704895590036  33.03990196869642 52.5008042221667  33.221068359375 52.10917968749998  L 33.335478515625006 51.86291601562499  C 33.494677734375 51.521589843749986  33.57046875 51.157259765624985  33.571154296875 50.79529101562499  C 33.571154296875 50.787826171875  33.57244921875 50.78036132812499  33.57244921875 50.77350585937499  C 33.571763671875004 50.677148437499994  33.56117578125 50.581933593749994  33.5500546875 50.48687109374999  C 33.546931640625004 50.45952539062499  33.54746484375001 50.43210351562499  33.543199218750004 50.404681640625  C 33.532078125000005 50.33010937499999  33.510902343750004 50.256755859375  33.49284960937501 50.18340234375  C 33.48165234375001 50.137394531249996  33.474796875 50.090167968749995  33.46108593750001 50.044845703125  C 33.43625390625001 49.963265625  33.40197656250001 49.8843515625  33.36838476562501 49.80528515625  C 33.35406445312501 49.77055078125  33.34355273437501 49.733835937500004  33.32740429687501 49.69894921875001  C 33.219081509292444 49.47071869042798  33.077654108551485 49.25973262253494  32.90769726562501 49.072816406250006  C 30.240615234375007 46.14705468750001  28.51379882812501 42.141328125  28.123951171875007 38.09005078125001  C 28.06837737514463 37.51321558312982  28.040365040374375 36.93405674882345  28.04000976562501 36.354550781250005  C 28.04000976562501 34.99145507812501  28.09477734375001 33.74162695312501  28.19859960937501 32.595621093750005  C 28.922994140625008 24.572208984375003  32.02654101562501 21.63464062500001  35.30231250000001 20.624830078125004  C 36.55031250000001 20.239857421875005  37.82390625000001 20.134816406250003  39.00045703125001 20.134816406250003  C 40.617281250000005 20.134816406250003  42.417984375 20.333777343750008  44.08447265625001 21.185074218750007  C 47.265791015625005 22.809896484375006  49.95960937500001 26.813871093750006  49.95960937500001 36.354550781250005  C 49.95960937500001 39.52406250000001  49.10328515625001 42.756263671875004  47.581599609375004 45.55329492187501  C 46.884703125 46.83366796875001  46.04879296875 48.02316796875001  45.09176953125 49.07281640625002  C 44.921649036125906 49.25930711718212  44.78038630466874 49.47019989729649  44.672671875000006 49.69849218750002  C 44.5169315461808 50.02767613020944  44.43385180458389 50.386519304280185  44.42907421875001 50.75065429687502  C 44.42907421875001 50.75743359375002  44.42762695312501 50.76428906250001  44.427017578125 50.77167773437501  C 44.426408203125 50.848839843750014  44.435853515625006 50.925849609375014  44.44263281250001 51.00293554687501  C 44.44636523437501 51.049628906250014  44.445070312500015 51.096322265625005  44.451925781250004 51.142253906250005  C 44.4575625 51.180263671875004  44.46944531250001 51.218197265625  44.476224609375 51.256054687500004  C 44.492373046875 51.34068164062501  44.506617187500005 51.42584179687501  44.531525390625 51.50978320312501  C 44.532134765625 51.513591796875005  44.533962890625006 51.51671484375001  44.5352578125 51.520447265625016  C 44.570064871023334 51.637570205722405  44.61329073771135 51.75202456180564  44.664597656249995 51.862916015625004  L 44.778474609374996 52.1091796875  C 45.679359375 54.060474609375  46.60027734375 55.888599609375  47.949814453125 56.81705859375  C 48.18522636014656 56.97924407152654  48.4462943317412 57.10058479772045  48.722044921875 57.175980468750005  L 51.05084765625 57.81201562500001  C 52.52340234375 58.41765820312501  54.094675781250004 59.08926562500001  55.643021484375005 59.75455078125  C 55.89294140625 59.8616484375  56.143546875000006 59.969203125  56.391638671875 60.076072265625  C 57.5831953125 60.588556640625  58.76401171875 61.096013671875  59.896992187500004 61.573458984375  C 60.5618203125 61.85445703125  61.224744140625006 62.084115234375  61.8658828125 62.30608007812501  C 62.602388671875 62.561408203125005  63.203994140625 62.780783203125004  63.687228515624994 62.99772070312501  Z M 70.72543359375 52.400080078125  C 69.734056640625 54.7438125  68.497330078125 56.951044921874995  67.029041015625 59.00319140625  C 65.90070703125001 58.3132265625  64.6531640625 57.880874999999996  63.533513671875 57.493083984375  C 62.945238281250006 57.28901953125  62.388726562500004 57.0963046875  61.87822265625 56.88050976562499  C 60.751564453125 56.40489257812499  59.57813671875 55.90055859374999  58.394197265624996 55.39188281249999  C 58.28886670556243 55.34685525243177  58.183597078088916 55.30168528926839  58.078388671875004 55.25637304687499  C 56.324835937500005 54.50204296874999  54.52702734375 53.730345703124996  52.840048828125006 53.03946679687499  C 52.742647137342324 52.99974003819223  52.64293423022199 52.9659343102425  52.541455078125004 52.93823437499999  L 50.702132812500004 52.435728515624994  C 50.481919921875004 52.131650390625  50.218365234375 51.64780664062499  49.97956640625 51.174017578124996  C 50.488927734375004 50.5205390625  50.958984375 49.835830078125  51.39727734375 49.12948828125  C 53.7477890625 45.34313671875  55.054289062500004 40.866591796875  55.054289062500004 36.354626953125  C 55.054289062500004 27.546416015625  52.8718125 22.218574218749996  49.773826171875 19.092023437499996  C 46.67583984375 15.965472656249997  42.66249609375 15.040822265624996  39.000609375 15.040822265624996  C 32.362535156250004 15.040822265624996  24.570304687500006 18.077871093749998  23.168132812500005 31.758796874999994  C 23.022644531250002 33.17399414062499  22.946167968750007 34.70314453125  22.946167968750007 36.35470312499999  C 22.946167968750007 36.689249999999994  22.953632812500008 37.023796874999995  22.967191406250006 37.35765820312499  C 22.998345703125008 38.08334765624999  23.065529296875006 38.8065234375  23.161886718750004 39.52604296875  C 23.287417968750006 40.460671874999996  23.464746093750005 41.387759765625  23.697222656250005 42.299994140624996  C 23.85208007812501 42.9094453125  24.03298828125001 43.511279296875  24.233853515625007 44.10641015625  C 24.245660156250008 44.14190625  24.25556250000001 44.177326171875  24.26805468750001 44.21274609375  C 24.301646484375006 44.309789062499995  24.33958007812501 44.405460937499996  24.373781250000008 44.50250390625  C 25.234371093750006 46.9096875  26.463099609375003 49.175572265625  28.02081445312501 51.17409375  C 27.997734375000007 51.219568359374996  27.974121093750007 51.26435742187499  27.951117187500007 51.309679687499994  C 27.908841796875006 51.39118359375  27.867099609375007 51.47314453124999  27.824214843750006 51.55335351562499  C 27.80494335937501 51.58892578124999  27.786357421875007 51.62297460937499  27.76700976562501 51.65786132812499  C 27.716921954099742 51.7500808471168  27.665730778395332 51.84169680046079  27.613447265625013 51.932689453124986  C 27.58140668957307 51.988686831980736  27.548650095886074 52.04427147041548  27.515185546875006 52.09942968749998  C 27.50520703125001 52.116720703124976  27.49461914062501 52.134164062499984  27.484107421875006 52.15160742187498  C 27.432696224608073 52.23494636029909  27.37897423083255 52.3168374751607  27.323003906250005 52.39718554687498  L 27.324908203125002 52.397871093749984  C 27.316224609375006 52.409753906249975  27.30685546875 52.425216796874984  27.29878125 52.43649023437498  L 25.459458984375 52.93831054687497  C 25.357388671875004 52.96626562499997  25.257908203125 52.99985742187498  25.160941406250004 53.03954296874997  C 23.373873046875 53.77201171874997  21.458607421875 54.59611523437497  19.605498046875002 55.392035156249975  C 18.421558593750003 55.90071093749997  17.248816406250004 56.40504492187497  16.122005859375005 56.880662109374974  C 15.610892578125004 57.09645703124997  15.054990234375003 57.28917187499998  14.466714843750005 57.49323632812497  C 13.346835937500003 57.88110351562497  12.099216796875005 58.313455078124974  10.970806640625003 59.00341992187498  C 9.502441406250004 56.95127343749998  8.265714843750002 54.74396484374998  7.2744140625000036 52.400232421874975  C 5.4803378906250035 48.15852539062497  4.570693359375004 43.65014062499998  4.570693359375004 39.000228515624976  C 4.570693359375004 34.35031640624998  5.480337890625 29.841855468749998  7.2744140625 25.600224609374997  C 9.00823828125 21.500958984375  11.491365234375 17.818505859374998  14.654783203125001 14.655087890624998  C 17.818201171875003 11.491669921875  21.500654296875 9.008619140625  25.599919921875003 7.274718749999998  C 29.841626953125 5.480490234375  34.350087890625 4.570845703125  39 4.570845703125  C 43.649912109374995 4.570845703125  48.158296875 5.480490234375  52.40000390625 7.27456640625  C 56.499193359375 9.008466796875  60.181646484375 11.491517578125  63.345064453125 14.654935546875  C 66.50840625 17.818353515625  68.991533203125 21.500882812500002  70.72543359375 25.600072265625  C 72.51950976562499 29.841703125  73.429154296875 34.3501640625  73.429154296875 39.000076171875  C 73.429154296875 43.64998828125  72.51950976562499 48.158373046875  70.72543359375 52.400080078125  Z " fill-rule="nonzero" fill="#ffffff" stroke="none" transform="matrix(1 0 0 1 253 310 )" />
  </g>
</svg>