<?xml version="1.0" encoding="utf-8"?>
<svg version="1.1" xmlns:xlink="http://www.w3.org/1999/xlink" width="18px" height="13px" xmlns="http://www.w3.org/2000/svg">
  <g transform="matrix(1 0 0 1 -998 -675 )">
    <path d="M 0.7433648934316748 1.5603752274346463  C 0.37168245542714495 1.5603752274346463  0.14867298913990407 1.1804040965638185  0.14867297171728922 0.8004329478818437  C 0.14867297171728922 0.34446758371239083  0.44601893257448183 0.04049066832904042  0.7433648934316744 0.04049066832904042  L 9.292061089494164 0.04049066832904042  C 9.663743527498696 0.04049066832904042  9.886752993785935 0.34446758371239083  9.886753011208548 0.8004329478818437  C 9.886753011208548 1.1804040787526715  9.589407050351356 1.5603752274346463  9.292061089494164 1.5603752274346463  L 0.7433648934316748 1.5603752274346463  Z M 8.920378651489633 3.8402020482819093  C 9.366397584064114 3.8402020482819093  9.738080022068644 4.14417896366526  9.738080022068644 4.600144310023566  C 9.738080022068644 5.056109674193019  9.366397584064114 5.36008658957637  8.920378651489633 5.36008658957637  L 0.8177013705790108 5.36008658957637  C 0.37168243800452916 5.36008658957637  0 5.056109674193019  0 4.600144310023566  C 0 4.220173179152739  0.3716824380045292 3.8402020304707625  0.8177013705790108 3.8402020482819093  L 8.920378651489633 3.8402020482819093  Z M 8.994715146059583 9.159797951718092  L 0.8920378651489624 9.159797951718092  C 0.44601893257448066 9.159797951718092  0.07433649456995081 8.85582103633474  0.07433649456995081 8.399855689976437  C 0.07433649456995081 7.943890343618132  0.4460189325744807 7.639913410423635  0.8920378651489624 7.639913410423635  L 8.994715146059583 7.639913410423635  C 9.440734078634064 7.639913410423635  9.812416516638594 7.9438903258069855  9.812416516638594 8.399855689976437  C 9.812416516638594 8.779826820847266  9.440734078634064 9.159797969529237  8.994715146059583 9.159797951718092  Z M 8.846042156919681 11.439624772565352  C 9.366397584064114 11.439624772565352  9.738080022068644 11.743601687948706  9.738080022068644 12.199567052118157  C 9.738080022068644 12.655532416287608  9.366397584064114 12.959509331670958  8.846042156919681 12.959509331670958  L 0.9663743597189148 12.959509331670958  C 0.4460189325744814 12.959509331670958  0.07433649456995144 12.655532416287608  0.07433649456995144 12.199567052118157  C 0.07433649456995144 11.743601687948706  0.4460189325744813 11.439624772565352  0.9663743597189148 11.439624772565352  L 8.846042156919681 11.439624772565352  Z M 12.191184151228292 11.895590136734803  C 11.893838190371099 11.591613221351453  11.893838190371099 11.059653641694524  12.191184151228292 10.679682510823698  L 16.05668157268134 6.4240057667013755  L 12.191184151228292 2.1683290403902005  C 11.893838190371099 1.8643521250068498  11.893838190371099 1.2563983120512952  12.191184151228292 0.9524213966679449  C 12.488530112085485 0.6484444812845944  13.008885521807304 0.6484444812845944  13.306231482664497 0.9524213966679449  L 17.692084331261977 5.816051953745821  C 17.98943029211917 6.120028869129172  17.98943029211917 6.7279826820847255  17.692084331261977 7.031959597468077  L 13.306231482664497 11.895590136734803  C 13.008885521807304 12.199567052118157  12.488530112085485 12.199567052118157  12.191184151228292 11.895590136734803  Z " fill-rule="nonzero" fill="#00ffff" stroke="none" transform="matrix(1 0 0 1 998 675 )" />
  </g>
</svg>