<?xml version="1.0" encoding="utf-8"?>
<svg version="1.1" xmlns:xlink="http://www.w3.org/1999/xlink" width="20px" height="20px" xmlns="http://www.w3.org/2000/svg">
  <g transform="matrix(1 0 0 1 -182 -314 )">
    <path d="M 0 15.2  L 1.6 15.2  L 1.6 18.400000000000002  L 4.8 18.400000000000002  L 4.8 20  L 0 20  L 0 15.2  Z M 18.400000000000002 15.2  L 20 15.2  L 20 20  L 15.2 20  L 15.2 18.400000000000002  L 18.400000000000002 18.400000000000002  L 18.400000000000002 15.2  Z M 3.5999999999999996 13.694400000000002  L 3.5999999999999996 5.9056  L 10 2.7055999999999996  L 16.4 5.9056  L 16.4 13.694400000000002  L 10 16.894400000000005  L 3.5999999999999996 13.694400000000002  Z M 9.200000000000001 9.694400000000002  L 5.2 7.6944  L 5.2 12.7056  L 9.200000000000001 14.7056  L 9.200000000000001 9.694400000000002  Z M 14.8 12.7056  L 14.8 7.6944  L 10.8 9.694400000000002  L 10.8 14.7056  L 14.8 12.7056  Z M 13.8096 6.4  L 10 4.4944  L 6.1903999999999995 6.4  L 10 8.304  L 13.8096 6.4  Z M 0 0  L 4.8 0  L 4.8 1.6  L 1.6 1.6  L 1.6 4.8  L 0 4.8  L 0 0  Z M 15.2 0  L 20 0  L 20 4.8  L 18.400000000000002 4.8  L 18.400000000000002 1.6  L 15.2 1.6  L 15.2 0  Z " fill-rule="nonzero" fill="#00ffff" stroke="none" transform="matrix(1 0 0 1 182 314 )" />
  </g>
</svg>