<?xml version="1.0" encoding="utf-8"?>
<svg version="1.1" xmlns:xlink="http://www.w3.org/1999/xlink" width="54px" height="54px" xmlns="http://www.w3.org/2000/svg">
  <g transform="matrix(1 0 0 1 -579 -1403 )">
    <path d="M 53.999578125 26.999999999999996  C 53.999630859375 12.08851171875  41.91148828125 0.000369140625  27 0.000369140625  C 12.088458984375 0.000369140625  0.00031640625 12.08851171875  0.00031640625 27.000052734375  C 0.00031640625 33.14745703125  2.05505859375 38.8148203125  5.51485546875 43.353298828125  C 6.922176300695439 45.19969738579513  8.560639654546062 46.85785086918884  10.390095703124999 48.287126953125  C 12.2025234375 49.703308593749995  14.200470703125001 50.892943359374996  16.341380859374997 51.81379101562499  C 19.611333984374998 53.22021679687499  23.214515625 53.99968359374999  26.999947265625 53.99968359374999  C 30.785326171875 53.99968359374999  34.388560546875 53.220216796875  37.658460937499996 51.81379101562499  C 39.799423828125 50.892943359374996  41.797318359375 49.703308593749995  43.60974609375 48.28712695312499  C 45.43932344243956 46.857819931312015  47.07787876182967 45.19959216503456  48.48525 43.353087890625  C 51.944888671875 38.814556640625  53.999578125 33.14735156249999  53.999578125 26.999999999999996  Z M 44.091158203125 43.61380664062501  C 44.012770160933314 43.69454268808396  43.93380721460231 43.774718555896904  43.854275390625 43.854328124999995  C 42.0468046875 45.66174609375  39.9943828125 47.148064453125  37.737193359375 48.287126953125  C 37.25814903312391 48.52897097477886  36.771118741985745 48.754660646364755  36.27692578124999 48.963814453124996  C 33.340359375 50.205867187500004  30.219169921874997 50.83562109375  27 50.83562109375  C 23.780830078125003 50.83562109375  20.659587890625 50.205867187500004  17.72307421875 48.963814453124996  C 17.228863917596833 48.75466071140512  16.741816055923643 48.52897104792866  16.262753906249998 48.287126953125004  C 14.005564453125 47.148064453125  11.95308984375 45.661798828125  10.145619140625 43.854328125  C 10.066100586015445 43.77468769546166  9.987137732983287 43.69449434382927  9.908736328125 43.613753906250004  C 10.2433359375 43.46356640625  10.6599375 43.311638671875  11.170037109375 43.13492578125  C 11.613427734375 42.981257812500004  12.072375 42.822263671875  12.53295703125 42.6277265625  C 13.319068359375 42.296291015625  14.138771484375 41.943708984375  14.96612109375 41.588068359374994  C 16.200000000000003 41.05771874999999  17.4751171875 40.509703125  18.657263671875 40.023650390624994  L 20.268984375000002 39.58331835937499  C 20.459966678108607 39.53128994575772  20.64075080866313 39.44727230859696  20.803658203125 39.334833984374995  C 21.4584609375 38.88458789062499  21.9663984375 38.12516015625  22.427085937500003 37.24781835937499  C 22.467533203125 37.17124804687499  22.506292968750003 37.09024804687499  22.545896484375003 37.012253906249995  C 22.56788671875 36.969328125  22.589349609375002 36.926244140624995  22.610865234375 36.883212890624996  C 22.74431857567225 36.6159495431008  22.8737782860206 36.346710615346176  22.999201171875 36.07558593749999  L 23.078408203125 35.90509570312499  C 23.188623046875 35.66879296874999  23.24109375 35.41656445312499  23.241568359375 35.16597070312499  C 23.241568359375 35.160802734375  23.242464843750003 35.155634765624995  23.242464843750003 35.150888671874995  C 23.241990234375002 35.0841796875  23.23466015625 35.01826171875  23.226960937500003 34.95244921875  C 23.224798828125003 34.93351757812499  23.225167968750004 34.91453320312499  23.222214843750002 34.895548828125  C 23.214515625000004 34.84392187499999  23.199855468750005 34.793138671875  23.187357421875003 34.74235546875  C 23.179605468750005 34.71050390625  23.174859375000004 34.677808593749994  23.165367187500006 34.646431640625  C 23.148175781250004 34.589953125  23.124445312500004 34.535320312500005  23.101189453125006 34.48058203125  C 23.091275390625007 34.45653515625  23.083998046875006 34.4311171875  23.072818359375006 34.40696484375  C 22.997825660279386 34.248959093373216  22.89991438284334 34.10289181560111  22.782251953125005 33.973488281250006  C 20.935810546875004 31.947960937500003  19.740322265625007 29.174765625  19.470427734375004 26.370035156250005  C 19.431953567407824 25.970687711397566  19.412560412566876 25.569731595339313  19.412314453125006 25.168535156250005  C 19.412314453125006 24.224853515625007  19.450230468750007 23.359587890625004  19.522107421875006 22.566199218750004  C 20.023611328125007 17.011529296875004  22.172220703125006 14.977828125000006  24.440062500000007 14.278728515625003  C 25.304062500000008 14.012208984375004  26.185781250000005 13.939488281250004  27.000316406250004 13.939488281250004  C 28.119656250000006 13.939488281250004  29.366296875000003 14.077230468750004  30.520019531250007 14.666589843750003  C 32.722470703125005 15.791466796875005  34.587421875000004 18.563449218750005  34.587421875000004 25.168535156250005  C 34.587421875000004 27.362812500000004  33.994582031250005 29.600490234375005  32.941107421875 31.536896484375006  C 32.458640625 32.42330859375001  31.87993359375 33.24680859375  31.21737890625 33.97348828125001  C 31.099603178856395 34.10259723497224  31.001805903232203 34.24859992889757  30.927234375000005 34.40664843750002  C 30.81941414735594 34.634545013221924  30.76189740317346 34.882974902963205  30.758589843750006 35.13506835937501  C 30.758589843750006 35.139761718750016  30.757587890625004 35.14450781250001  30.757166015625003 35.14962304687501  C 30.756744140625003 35.20304296875001  30.763283203125003 35.25635742187501  30.767976562500007 35.309724609375  C 30.770560546875004 35.34205078125001  30.76966406250001 35.37437695312501  30.774410156250003 35.406175781250006  C 30.778312500000002 35.432490234375  30.786539062500005 35.458751953125  30.791232421875 35.484960937500006  C 30.802412109375002 35.543548828125004  30.8122734375 35.60250585937501  30.829517578125003 35.66061914062501  C 30.829939453125004 35.663255859375006  30.831205078125002 35.665417968750006  30.8321015625 35.668001953125014  C 30.856198756862305 35.74908706550013  30.88612435687709 35.828324696634674  30.92164453125 35.905095703125006  L 31.000482421875 36.0755859375  C 31.624171875 37.426482421875  32.26173046875 38.692107421875  33.196025390625 39.33488671875  C 33.35900286471685 39.44716897259529  33.539742229666984 39.53117409072954  33.730646484375 39.58337109375  L 35.34289453125 40.023703125000004  C 36.36235546875 40.442994140625004  37.45016015625 40.907953125000006  38.522091796875 41.368535156250005  C 38.69511328125 41.4426796875  38.868609375000005 41.517140625  39.040365234375 41.591126953125  C 39.865289062500004 41.945923828125  40.68277734375 42.297240234375  41.4671484375 42.627779296875005  C 41.9274140625 42.82231640625  42.386361328125005 42.981310546875  42.8302265625 43.13497851562501  C 43.340115234375 43.311744140625  43.756611328125 43.463619140625006  44.091158203125 43.61380664062501  Z M 48.96376171875 36.276978515625  C 48.277423828124995 37.8995625  47.421228515624996 39.427646484374996  46.404720703125 40.84836328125  C 45.62356640625 40.3706953125  44.759882812499995 40.071374999999996  43.984740234375 39.802904296875  C 43.57747265625 39.66162890625  43.192195312500004 39.5282109375  42.83876953125 39.378814453124996  C 42.058775390625 39.049541015624996  41.24640234375 38.700386718749996  40.426751953125 38.348226562499995  C 40.353830796158604 38.31705363629892  40.28095182329233 38.28578212333966  40.208115234375 38.254412109375  C 38.9941171875 37.732183593749994  37.74948046875 37.197931640624994  36.581572265625006 36.719630859374995  C 36.51414032585238 36.692127718748466  36.44510831323061 36.66872375324481  36.374853515625006 36.649546875  L 35.101476562500004 36.301658203124994  C 34.949021484375 36.091142578125  34.766560546875 35.75617382812499  34.601238281250005 35.428166015624996  C 34.953873046875 34.9757578125  35.279296875 34.501728515625  35.58273046875 34.01272265625  C 37.210007812499995 31.39140234375  38.1145078125 28.292255859375  38.1145078125 25.168587890625  C 38.1145078125 19.070595703125  36.603562499999995 15.382089843749997  34.458802734375 13.217554687499998  C 32.31404296875 11.053019531249998  29.53557421875 10.412876953124997  27.000421875 10.412876953124997  C 22.404832031250002 10.412876953124997  17.010210937500005 12.515449218749998  16.039476562500003 21.986859374999995  C 15.938753906250001 22.966611328124998  15.885808593750005 24.025253906249997  15.885808593750005 25.168640624999995  C 15.885808593750005 25.400249999999996  15.890976562500004 25.631859374999998  15.900363281250005 25.862994140624995  C 15.921931640625004 26.365394531249994  15.968443359375005 26.866054687499997  16.035152343750003 27.36418359375  C 16.122058593750005 28.011234374999997  16.244824218750004 28.653064453124998  16.405769531250005 29.284611328125  C 16.512978515625004 29.7065390625  16.638222656250004 30.123193359375  16.777283203125005 30.53520703125  C 16.785457031250004 30.55978125  16.79231250000001 30.584302734375  16.800960937500005 30.608824218749998  C 16.824216796875003 30.6760078125  16.850478515625007 30.742242187499997  16.874156250000006 30.809425781249995  C 17.469949218750006 32.47593749999999  18.320607421875003 34.044626953125  19.399025390625006 35.42821875  C 19.383046875000005 35.459701171875  19.366699218750007 35.490708984375  19.350773437500006 35.522085937499995  C 19.321505859375005 35.57851171875  19.292607421875005 35.63525390624999  19.262917968750006 35.690783203124994  C 19.249576171875006 35.715410156249995  19.236708984375003 35.738982421874994  19.223314453125006 35.76313476562499  C 19.188638275915206 35.826979048003935  19.153198231196768 35.89040547724208  19.11700195312501 35.95340039062499  C 19.09482001585828 35.992167806755894  19.072142374074975 36.03064947951841  19.048974609375005 36.06883593749998  C 19.042066406250004 36.080806640624985  19.034736328125007 36.09288281249999  19.027458984375002 36.10495898437498  C 18.991866617036358 36.162655172514754  18.95467446749946 36.2193490212651  18.915925781250003 36.274974609374986  L 18.917244140625 36.27544921874999  C 18.911232421875003 36.28367578124998  18.90474609375 36.29438085937499  18.89915625 36.30218554687499  L 17.625779296875002 36.64959960937498  C 17.555115234375002 36.66895312499998  17.486244140625 36.692208984374986  17.419113281250002 36.71968359374998  C 16.181912109375002 37.22677734374998  14.855958984375 37.797310546874975  13.573037109375003 38.34833203124998  C 12.753386718750003 38.70049218749998  11.941488281250003 39.04964648437498  11.161388671875002 39.37891992187498  C 10.807541015625002 39.52831640624998  10.422685546875002 39.66173437499999  10.015417968750002 39.803009765624985  C 9.240117187500003 40.07153320312498  8.376380859375004 40.37085351562499  7.595173828125002 40.848521484374984  C 6.578613281250003 39.427804687499986  5.722417968750002 37.89966796874999  5.036132812500003 36.27708398437498  C 3.7940800781250026 33.34051757812498  3.164326171875002 30.219328124999983  3.164326171875002 27.000158203124982  C 3.164326171875002 23.780988281249986  3.794080078125 20.659746093749998  5.0361328125 17.723232421875  C 6.23647265625 14.885279296875  7.955560546875 12.335888671874999  10.145619140625001 10.145830078124998  C 12.335677734375002 7.955771484374999  14.885068359375 6.236736328124999  17.723021484375 5.036343749999999  C 20.659587890625 3.794185546875  23.780830078125 3.1644316406249997  27 3.1644316406249997  C 30.219169921874997 3.1644316406249997  33.340359375 3.794185546875  36.27692578125 5.03623828125  C 39.114826171874995 6.236630859375  41.664216796875 7.955666015625  43.854275390625 10.145724609375  C 46.04428125 12.335783203125  47.763369140625 14.885226562500002  48.96376171875 17.723126953125  C 50.205814453124994 20.659640624999998  50.835568359374996 23.780882812499996  50.835568359374996 27.000052734375  C 50.835568359374996 30.219222656250004  50.205814453124994 33.340412109374995  48.96376171875 36.276978515625  Z " fill-rule="nonzero" fill="#ffffff" stroke="none" transform="matrix(1 0 0 1 579 1403 )" />
  </g>
</svg>