<?xml version="1.0" encoding="utf-8"?>
<svg version="1.1" xmlns:xlink="http://www.w3.org/1999/xlink" width="67px" height="64px" xmlns="http://www.w3.org/2000/svg">
  <defs>
    <filter x="59px" y="256px" width="67px" height="64px" filterUnits="userSpaceOnUse" id="filter1774">
      <feOffset dx="0" dy="0" in="SourceAlpha" result="shadowOffsetInner" />
      <feGaussianBlur stdDeviation="9" in="shadowOffsetInner" result="shadowGaussian" />
      <feComposite in2="shadowGaussian" operator="atop" in="SourceAlpha" result="shadowComposite" />
      <feColorMatrix type="matrix" values="0 0 0 0 0.9490196078431372  0 0 0 0 0.6  0 0 0 0 0.2901960784313725  0 0 0 0.4588235294117647 0  " in="shadowComposite" />
    </filter>
    <g id="widget1775">
      <path d="M 17.823831280271435 21.894139223259984  C 17.823831315048594 22.543318590088603  17.599665566905 23.087076979825643  17.131082531390263 23.542145987744856  C 16.68157450466732 23.994927136076168  16.13786478369927 24.22010161957144  15.50596989509007 24.22010161957144  C 14.87400383206496 24.22010161957144  14.31719927888118 23.994927136076168  13.865306876059261 23.542145987744856  C 13.397898251573075 23.087076979825643  13.173731941217136 22.543318590088603  13.173731941217136 21.894139223259984  C 13.173731941217136 21.259330465097936  13.397898284739158 20.697659820207193  13.865306876059261 20.24609407958322  C 14.31719927888118 19.775403274689324  14.87400383206496 19.549049064141684  15.50596989509007 19.549049064141684  C 16.13786478369927 19.549049064141684  16.680400093638767 19.775367527403812  17.131082531390263 20.24609407958322  C 17.599665566905 20.697659820207193  17.823831280271435 21.259330465097936  17.823831280271435 21.894139223259984  Z M 13.173766964601663 9.767530990435967  C 13.173766929824504 9.071629288455874  13.399144367674875 8.481183644547459  13.836694893528913 7.997337672009598  C 14.271896696824093 7.5290062212746225  14.831120616325293 7.287100875441553  15.50596989509007 7.287100875441553  C 16.183203483621654 7.287100875441553  16.741217902377603 7.513455952186229  17.17762967074321 7.997337672009598  C 17.59966400809906 8.465633342143795  17.823831280271435 9.05611476665299  17.823831280271435 9.767530990435967  C 17.823831280271435 10.371167715850211  16.920047867603117 14.862517434357112  16.60644921218954 18.12861171802016  C 16.60644921218954 18.12861171802016  14.4233217259743 18.12861171802016  14.4233217259743 18.12861171802016  C 14.166948047186976 14.861302093280322  13.173766964601663 10.369952308142876  13.173766964601663 9.767530990435967  Z M 27.66894924642549 28.000000000000007  C 30.634292982628402 28.000000000000007  31.85399057401924 25.86811051623364  30.36357840527267 23.26906950867629  C 30.36357840527267 23.26906950867629  18.20063195469241 1.9501386905202482  18.20063195469241 1.9501386905202482  C 16.71139426330656 -0.6500462301734162  14.286202389594516 -0.6500462301734162  12.798210150988789 1.9501386905202482  C 12.798210150988789 1.9501386905202482  0.6352295393421821 23.26906950867629  0.6352295393421821 23.26906950867629  C -0.8527982533054131 25.8680748022634  0.3633750436850819 28.000000000000007  3.344199381178221 28.000000000000007  C 3.344199381178221 28.000000000000007  27.66894924642549 28.000000000000007  27.66894924642549 28.000000000000007  Z " fill-rule="nonzero" fill="#f2994a" stroke="none" transform="matrix(1 0 0 1 77 274 )" />
    </g>
  </defs>
  <g transform="matrix(1 0 0 1 -59 -256 )">
    <use xlink:href="#widget1775" filter="url(#filter1774)" />
    <use xlink:href="#widget1775" />
  </g>
</svg>