<?xml version="1.0" encoding="utf-8"?>
<svg version="1.1" xmlns:xlink="http://www.w3.org/1999/xlink" width="70px" height="70px" xmlns="http://www.w3.org/2000/svg">
  <defs>
    <filter x="336px" y="255px" width="70px" height="70px" filterUnits="userSpaceOnUse" id="filter1776">
      <feOffset dx="0" dy="0" in="SourceAlpha" result="shadowOffsetInner" />
      <feGaussianBlur stdDeviation="9" in="shadowOffsetInner" result="shadowGaussian" />
      <feComposite in2="shadowGaussian" operator="atop" in="SourceAlpha" result="shadowComposite" />
      <feColorMatrix type="matrix" values="0 0 0 0 0.8509803921568627  0 0 0 0 0  0 0 0 0 0.10588235294117647  0 0 0 1 0  " in="shadowComposite" />
    </filter>
    <g id="widget1777">
      <path d="M 23.37257142857143 1.2822857142857134  C 25.44495238095239 2.0982857142857085  27.310095238095244 3.3352380952380893  28.968000000000004 4.993142857142857  C 30.625904761904767 6.6510476190476195  31.862857142857152 8.516190476190475  32.67885714285715 10.588571428571427  C 33.49485714285714 12.66095238095238  33.902857142857144 14.785142857142858  33.902857142857144 16.961142857142857  C 33.902857142857144 19.137142857142862  33.49485714285714 21.26133333333334  32.67885714285715 23.333714285714287  C 31.862857142857152 25.40609523809524  30.625904761904767 27.271238095238097  28.968000000000004 28.929142857142857  C 27.31009523809524 30.587047619047624  25.444952380952383 31.830476190476197  23.37257142857143 32.65942857142857  C 21.300190476190476 33.48838095238096  19.176000000000002 33.902857142857144  17 33.902857142857144  C 14.823999999999998 33.90285714285715  12.693333333333333 33.48838095238096  10.608 32.65942857142857  C 8.52266666666667 31.830476190476187  6.651047619047623 30.58704761904762  4.993142857142858 28.929142857142857  C 3.3352380952380947 27.271238095238104  2.091809523809523 25.406095238095244  1.262857142857144 23.333714285714287  C 0.43390476190476535 21.26133333333333  0.01942857142857468 19.137142857142855  0.019428571428572523 16.961142857142857  C 0.01942857142857037 14.785142857142862  0.433904761904761 12.660952380952384  1.262857142857144 10.588571428571427  C 2.0918095238095273 8.51619047619047  3.335238095238099 6.651047619047613  4.993142857142858 4.993142857142856  C 6.651047619047619 3.335238095238099  8.522666666666666 2.0982857142857188  10.608 1.2822857142857134  C 12.693333333333337 0.46628571428570825  14.824000000000002 0.058285714285708404  17 0.05828571428571326  C 19.176 0.05828571428571865  21.300190476190473 0.46628571428571847  23.37257142857143 1.2822857142857134  Z M 22.96457142857143 25.54857142857142  C 23.728761904761907 25.548571428571428  24.38285714285714 25.276571428571422  24.92685714285714 24.73257142857143  C 25.47085714285714 24.188571428571432  25.71047619047619 23.566857142857145  25.645714285714284 22.86742857142857  C 25.580952380952375 22.168  25.27657142857143 21.546285714285712  24.73257142857143 21.00228571428571  L 20.652571428571427 16.92228571428571  L 24.73257142857143 12.84228571428571  C 25.276571428571433 12.29828571428571  25.580952380952382 11.676571428571425  25.645714285714284 10.977142857142855  C 25.71047619047619 10.277714285714284  25.47085714285714 9.655999999999997  24.92685714285714 9.111999999999997  C 24.382857142857144 8.567999999999996  23.728761904761907 8.295999999999998  22.96457142857143 8.295999999999998  C 22.20038095238095 8.295999999999998  21.546285714285712 8.567999999999996  21.002285714285712 9.111999999999997  L 16.922285714285714 13.153142857142853  L 12.958857142857143 9.189714285714283  C 12.414857142857143 8.671619047619046  11.793142857142858 8.380190476190474  11.093714285714288 8.315428571428567  C 10.394285714285717 8.250666666666664  9.77257142857143 8.47733333333333  9.22857142857143 8.995428571428569  C 8.684571428571429 9.53942857142857  8.41257142857143 10.199999999999998  8.41257142857143 10.977142857142855  C 8.41257142857143 11.75428571428571  8.684571428571429 12.414857142857139  9.22857142857143 12.95885714285714  L 13.192 16.92228571428571  L 9.22857142857143 20.88571428571428  C 8.684571428571429 21.42971428571428  8.41257142857143 22.08380952380952  8.41257142857143 22.847999999999995  C 8.41257142857143 23.612190476190474  8.684571428571429 24.266285714285708  9.22857142857143 24.81028571428571  C 9.77257142857143 25.35428571428571  10.394285714285717 25.593904761904756  11.093714285714288 25.52914285714285  C 11.793142857142858 25.464380952380942  12.414857142857143 25.15999999999999  12.958857142857143 24.615999999999996  L 16.922285714285714 20.652571428571424  L 21.002285714285712 24.732571428571422  C 21.546285714285712 25.276571428571422  22.200380952380954 25.548571428571428  22.96457142857143 25.54857142857142  Z " fill-rule="nonzero" fill="#d9001b" stroke="none" transform="matrix(1 0 0 1 354 273 )" />
    </g>
  </defs>
  <g transform="matrix(1 0 0 1 -336 -255 )">
    <use xlink:href="#widget1777" filter="url(#filter1776)" />
    <use xlink:href="#widget1777" />
  </g>
</svg>