<?xml version="1.0" encoding="utf-8"?>
<svg version="1.1" xmlns:xlink="http://www.w3.org/1999/xlink" width="32px" height="32px" xmlns="http://www.w3.org/2000/svg">
  <g transform="matrix(1 0 0 1 -1278 -1057 )">
    <path d="M 30.649903905797277 16.225858218749995  C 30.84851162229082 15.76889393945312  31.003593566832784 14.67777519335937  29.801837002445527 13.414647195312499  L 18.12665133655601 1.1790230605468752  C 17.40247863573837 0.42104263574218775  16.431545696511247 0  15.393096439974691 0  C 14.354304441192712 0  13.383542903127061 0.4170705488281252  12.659198831186712 1.1790230605468752  L 0.9881258319321841 13.414647195312499  C -0.21757202796735525 14.677775193359375  -0.06266145454810207 15.768893939453124  0.13646034527481427 16.2260308984375  C 0.2795470021184709 16.55087965625  0.7573022067720456 17.437003485351564  2.138131291097886 17.437003485351564  L 3.8491735143532315 17.437003485351564  L 3.8491735143532315 26.849154885742188  C 3.8491735143532315 28.941415695312497  5.309685574809525 30.913304594726558  7.401492534473236 30.996200592773437  L 7.401492534473236 31  L 9.659862613009086 31  C 11.772232905847748 31  12.469501902415237 29.603892991210937  12.501889182204543 27.549798873046875  L 12.50805821219579 27.54582678613281  L 12.50805821219579 21.0381444296875  C 12.50805821219579 19.971203685546875  12.348863601018834 19.373834291015626  13.431352682797584 19.37383426074219  L 17.358952863786794 19.37383426074219  C 18.44109926339764 19.37383426074219  18.280191031109855 19.967576958007815  18.280191031109855 21.0381444296875  L 18.281561909975263 25.078634236328124  L 18.280191031109855 25.078634236328124  L 18.280191031109855 27.398340956054685  C 18.280191031109855 27.506278475585937  18.27882015224444 27.642538793945313  18.282247364427345 27.798659637695312  L 18.282247364427345 27.82629162695312  L 18.28293281887943 27.826809726562498  C 18.309151098716253 28.938479777343744  18.575960586971316 30.99982729003906  21.12478801695218 30.99982729003906  L 23.3833294966495 30.99982729003906  L 23.3833294966495 30.996027913085936  C 25.475993251849246 30.914168114257812  26.937190766757627 28.941761115234375  26.937190736718865 26.84898217578125  L 26.937190736718865 17.43683077539062  L 28.648232959974212 17.43683077539062  C 30.029062014261292 17.43683077539062  30.506645877830913 16.5469075390625  30.649903905797277 16.225858218749995  Z M 28.369256842936892 14.75013648925781  L 28.990441416640785 15.5  L 25 15.5  L 25 26.849327595703123  C 25.01074741822335 27.91626833984375  24.326330534928964 29.059024427734375  23.243841423111455 29.059024397460938  L 21.022999427619894 29.059024397460938  C 20.378852445178133 29.032428607421874  20.22736908394178 28.759907940429684  20.19960855411684 28.273584693359375  L 20.19960855411684 27.61404328515625  C 20.200636720775588 27.544445166992183  20.201664887434333 27.473120070312497  20.201664887434333 27.398513666015624  L 20.201664887434333 25.078806916015626  L 20.19960855411684 25.078806916015626  L 20.19960855411684 21.038317109375  C 20.19960855411684 18.90080889355469  19.518961625250782 17.436830775390625  17.354326113822427 17.436830775390625  L 13.427240016162592 17.436830775390625  C 11.262604534772999 17.436830775390625  10.58195757586818 18.901154283203123  10.58195757586818 21.038317109375  L 10.58195757586818 28.29983509375  C 10.548713500542839 28.794966064453124  10.378894480532985 29.062996514648436  9.655921317496805 29.062996514648436  L 7.535325661349406 29.062996514648436  C 6.454207458436067 29.061096826171873  5.771161454007092 27.919376937499997  6 26.853472392578123  L 6 15.504144796874998  L 1.791296084466949 15.504144796874998  C 1.7554815924947367 15.504144796874998  1.819227985414603 15.50811688378906  1.791296084466949 15.504144796874998  C 1.8591551440218053 15.387744973632811  2.225525517168946 14.954613306640622  2.416421983721881 14.75428128613281  L 14.091607649611403 2.526601385742187  C 14.437928772912967 2.157714130859374  14.930935136363804 1.9370034853515619  15.408861682101332 1.9411482822265622  C 15.886445515632193 1.9371761953124995  16.34792142486852 2.161686217773437  16.69801247255965 2.526601385742187  L 28.369256842936892 14.75013648925781  Z " fill-rule="nonzero" fill="#ffffff" stroke="none" fill-opacity="0.6980392156862745" transform="matrix(1 0 0 1 1278 1057 )" />
  </g>
</svg>