<?xml version="1.0" encoding="utf-8"?>
<svg version="1.1" xmlns:xlink="http://www.w3.org/1999/xlink" width="299px" height="299px" xmlns="http://www.w3.org/2000/svg">
  <defs>
    <mask fill="white" id="clip2036">
      <path d="M 149.5 0  C 232.06656918786803 0  299 66.93343081213197  299 149.5  C 299 232.06656918786803  232.06656918786803 299  149.5 299  C 66.93343081213197 299  0 232.06656918786803  0 149.5  C 0 66.93343081213197  66.93343081213197 0  149.5 0  Z " fill-rule="evenodd" />
    </mask>
  </defs>
  <g transform="matrix(1 0 0 1 -720 -334 )">
    <path d="M 149.5 0  C 232.06656918786803 0  299 66.93343081213197  299 149.5  C 299 232.06656918786803  232.06656918786803 299  149.5 299  C 66.93343081213197 299  0 232.06656918786803  0 149.5  C 0 66.93343081213197  66.93343081213197 0  149.5 0  Z " fill-rule="nonzero" fill="#ffffff" stroke="none" fill-opacity="0" transform="matrix(1 0 0 1 720 334 )" />
    <path d="M 149.5 0  C 232.06656918786803 0  299 66.93343081213197  299 149.5  C 299 232.06656918786803  232.06656918786803 299  149.5 299  C 66.93343081213197 299  0 232.06656918786803  0 149.5  C 0 66.93343081213197  66.93343081213197 0  149.5 0  Z " stroke-width="2.8521568775177" stroke="#19ecff" fill="none" transform="matrix(1 0 0 1 720 334 )" mask="url(#clip2036)" />
  </g>
</svg>