<?xml version="1.0" encoding="utf-8"?>
<svg version="1.1" xmlns:xlink="http://www.w3.org/1999/xlink" width="22px" height="22px" xmlns="http://www.w3.org/2000/svg">
  <g transform="matrix(1 0 0 1 -1574 -319 )">
    <path d="M 21.83076923076923 10.096984615384615  C 21.83076923076923 9.349276030998311  21.22463166130938 8.74313846153846  20.47692307692308 8.74313846153846  L 18.796799999999998 8.74313846153846  C 18.629514454883342 8.165969767656755  18.398383429844394 7.6092573183488  18.107692307692307 7.083323076923078  L 19.296369230769233 5.894646153846154  C 19.82488631651218 5.36596943183459  19.82488631651218 4.508984414319256  19.296369230769233 3.9803076923076928  L 18.019692307692306 2.7049846153846158  C 17.491015585680746 2.176467529641665  16.63403056816541 2.176467529641665  16.105353846153847 2.7049846153846158  L 14.915323076923075 3.8936615384615396  C 14.389980815352354 3.6027263067742195  13.833688754755185 3.3715812791464987  13.256861538461536 3.2045538461538468  L 13.256861538461536 1.5230769230769239  C 13.256861538461536 0.7753683386906185  12.650723969001687 0.16923076923076902  11.903015384615383 0.16923076923076902  L 10.096984615384615 0.16923076923076902  C 9.349276030998311 0.16923076923076902  8.74313846153846 0.7753683386906185  8.74313846153846 1.5230769230769228  L 8.74313846153846 3.2045538461538468  C 8.166007087849628 3.371945616799193  7.609306207607707 3.6030718386940856  7.083323076923078 3.893661538461539  L 5.894646153846154 2.7049846153846158  C 5.36596943183459 2.176467529641663  4.508984414319256 2.176467529641663  3.9803076923076928 2.7049846153846158  L 2.702276923076924 3.9803076923076928  C 2.448055695590032 4.23424625582338  2.305211911314033 4.578830556419724  2.305211911314033 4.938153846153848  C 2.305211911314033 5.29747713588797  2.448055695590032 5.642061436484315  2.702276923076924 5.896000000000001  L 3.8923076923076936 7.084676923076923  C 3.6012307692307703 7.609969230769232  3.3697230769230777 8.167753846153845  3.2032000000000016 8.74313846153846  L 1.5230769230769239 8.74313846153846  C 0.7753683386906185 8.74313846153846  0.16923076923076902 9.349276030998308  0.16923076923076902 10.096984615384613  L 0.16923076923076902 11.903015384615385  C 0.16923076923076938 12.650723969001692  0.7753683386906185 13.256861538461543  1.5230769230769239 13.256861538461543  L 3.2031999999999994 13.25686153846154  C 3.3697230769230764 13.8336  3.6012307692307686 14.390030769230767  3.892307692307692 14.916676923076926  L 2.7009230769230768 16.106707692307697  C 2.1724059911801237 16.635384414319258  2.172405991180125 17.492369431834593  2.7009230769230768 18.021046153846154  L 3.9776000000000002 19.297723076923077  C 4.515117945646296 19.805756337683707  5.355774362046011 19.805756337683707  5.893292307692308 19.29772307692308  L 7.083323076923078 18.109046153846155  C 7.608615384615385 18.398769230769233  8.1664 18.630276923076924  8.74313846153846 18.79815384615385  L 8.74313846153846 20.47692307692308  C 8.74313846153846 21.22463166130938  9.349276030998311 21.83076923076923  10.096984615384615 21.83076923076923  L 11.903015384615385 21.83076923076923  C 12.650723969001692 21.83076923076923  13.256861538461543 21.22463166130938  13.256861538461543 20.47692307692308  L 13.256861538461536 18.798153846153845  C 13.834004095995382 18.63079390507152  14.390708440809991 18.39966624478552  14.916676923076926 18.109046153846155  L 16.105353846153854 19.29772307692308  C 16.634030568165414 19.826240162666032  17.49101558568075 19.826240162666032  18.01969230769231 19.29772307692308  L 19.296369230769237 18.022400000000005  C 19.824886316512192 17.49372327798844  19.82488631651219 16.636738260473106  19.296369230769233 16.10806153846154  L 18.10769230769231 14.919384615384617  C 18.398769230769233 14.392738461538464  18.62892307692308 13.836307692307692  18.7968 13.258215384615385  L 20.47692307692308 13.258215384615385  C 21.22463233823263 13.258215384615553  21.83076990769248 12.652077815155707  21.83076990769248 11.904369230769401  C 21.83076990769248 11.903917948631937  21.83076968205137 11.903466666527208  21.83076923076923 11.903015384615385  L 21.83076923076923 10.096984615384615  Z M 11.000000000000002 15.512369230769234  C 8.507887288240449 15.512369230769234  6.48763076923077 13.492112711759555  6.48763076923077 11.000000000000002  C 6.48763076923077 8.507887288240449  8.507887288240449 6.48763076923077  11.000000000000002 6.48763076923077  C 13.492112711759555 6.48763076923077  15.512369230769234 8.507887288240449  15.512369230769234 11.000000000000002  C 15.512369230769234 13.492112711759555  13.492112711759555 15.512369230769234  11.000000000000002 15.512369230769234  Z " fill-rule="nonzero" fill="#00ffff" stroke="none" transform="matrix(1 0 0 1 1574 319 )" />
  </g>
</svg>