<?xml version="1.0" encoding="utf-8"?>
<svg version="1.1" xmlns:xlink="http://www.w3.org/1999/xlink" width="32px" height="32px" xmlns="http://www.w3.org/2000/svg">
  <g transform="matrix(1 0 0 1 -250 -765 )">
    <path d="M 23.541666666666668 21.666666666666664  C 23.805555555555557 21.40277777777778  23.9375 21.083333333333336  23.9375 20.708333333333336  C 23.9375 20.34722222222222  23.805555555555557 20.03472222222222  23.541666666666668 19.770833333333336  L 19.770833333333332 16  L 23.541666666666668 12.229166666666668  C 23.805555555555557 11.965277777777775  23.9375 11.652777777777775  23.9375 11.291666666666668  C 23.9375 10.916666666666668  23.805555555555557 10.597222222222218  23.541666666666668 10.333333333333332  L 21.666666666666668 8.458333333333332  C 21.402777777777782 8.194444444444443  21.083333333333332 8.0625  20.708333333333332 8.0625  C 20.347222222222225 8.0625  20.034722222222225 8.194444444444443  19.770833333333332 8.458333333333332  L 16 12.229166666666668  L 12.229166666666666 8.458333333333332  C 11.965277777777779 8.194444444444443  11.652777777777779 8.0625  11.291666666666666 8.0625  C 10.916666666666666 8.0625  10.597222222222223 8.194444444444443  10.333333333333334 8.458333333333332  L 8.458333333333334 10.333333333333332  C 8.194444444444445 10.597222222222218  8.062500000000002 10.916666666666668  8.0625 11.291666666666668  C 8.062500000000002 11.652777777777775  8.194444444444445 11.965277777777775  8.458333333333334 12.229166666666668  L 12.229166666666666 16  L 8.458333333333334 19.770833333333336  C 8.194444444444445 20.03472222222222  8.062500000000002 20.34722222222222  8.0625 20.708333333333336  C 8.062500000000002 21.083333333333336  8.194444444444445 21.40277777777778  8.458333333333334 21.666666666666664  L 10.333333333333334 23.541666666666664  C 10.597222222222223 23.80555555555555  10.916666666666666 23.9375  11.291666666666666 23.9375  C 11.652777777777779 23.9375  11.965277777777779 23.80555555555555  12.229166666666666 23.541666666666664  L 16 19.770833333333336  L 19.770833333333332 23.541666666666664  C 20.034722222222225 23.80555555555555  20.347222222222225 23.9375  20.708333333333332 23.9375  C 21.083333333333332 23.9375  21.402777777777782 23.80555555555555  21.666666666666668 23.541666666666664  L 23.541666666666668 21.666666666666664  Z M 29.854166666666668 7.96875  C 31.284722222222218 10.420138888888886  32 13.097222222222218  32 16  C 32 18.90277777777778  31.284722222222218 21.579861111111107  29.854166666666668 24.03125  C 28.423611111111114 26.48263888888889  26.48263888888889 28.42361111111111  24.03125 29.854166666666668  C 21.579861111111114 31.284722222222225  18.90277777777778 32  16 32  C 13.097222222222223 32  10.42013888888889 31.284722222222225  7.96875 29.854166666666668  C 5.517361111111112 28.42361111111111  3.5763888888888893 26.48263888888889  2.1458333333333335 24.03125  C 0.7152777777777777 21.579861111111107  0 18.90277777777778  0 16  C 0 13.097222222222218  0.7152777777777777 10.420138888888886  2.1458333333333335 7.96875  C 3.5763888888888893 5.517361111111111  5.517361111111112 3.5763888888888857  7.96875 2.145833333333332  C 10.42013888888889 0.715277777777775  13.097222222222223 0  16 0  C 18.90277777777778 0  21.579861111111114 0.715277777777775  24.03125 2.145833333333332  C 26.48263888888889 3.5763888888888857  28.423611111111114 5.517361111111111  29.854166666666668 7.96875  Z " fill-rule="nonzero" fill="#d9001b" stroke="none" transform="matrix(1 0 0 1 250 765 )" />
  </g>
</svg>