<?xml version="1.0" encoding="utf-8"?>
<svg version="1.1" xmlns:xlink="http://www.w3.org/1999/xlink" width="32px" height="32px" xmlns="http://www.w3.org/2000/svg">
  <g transform="matrix(1 0 0 1 -131 -765 )">
    <path d="M 26.375 13.5625  C 26.625 13.3125  26.75 13  26.75 12.625  C 26.75 12.23611111111111  26.625 11.916666666666668  26.375 11.666666666666668  L 24.479166666666668 9.791666666666668  C 24.215277777777782 9.527777777777775  23.902777777777782 9.395833333333332  23.541666666666668 9.395833333333332  C 23.180555555555557 9.395833333333332  22.868055555555557 9.527777777777775  22.604166666666668 9.791666666666668  L 14.104166666666666 18.270833333333336  L 9.395833333333334 13.5625  C 9.131944444444445 13.29861111111111  8.819444444444445 13.166666666666668  8.458333333333334 13.166666666666668  C 8.097222222222223 13.166666666666668  7.784722222222222 13.29861111111111  7.520833333333333 13.5625  L 5.625 15.4375  C 5.375 15.6875  5.250000000000001 16.006944444444443  5.25 16.395833333333336  C 5.250000000000001 16.770833333333336  5.375 17.083333333333336  5.625 17.333333333333336  L 13.166666666666666 24.875  C 13.430555555555557 25.138888888888886  13.743055555555557 25.270833333333332  14.104166666666666 25.270833333333332  C 14.479166666666666 25.270833333333332  14.798611111111112 25.138888888888886  15.0625 24.875  L 26.375 13.5625  Z M 29.854166666666668 7.96875  C 31.284722222222218 10.420138888888886  32 13.097222222222218  32 16  C 32 18.90277777777778  31.284722222222218 21.579861111111107  29.854166666666668 24.03125  C 28.423611111111114 26.48263888888889  26.48263888888889 28.42361111111111  24.03125 29.854166666666668  C 21.579861111111114 31.284722222222225  18.90277777777778 32  16 32  C 13.097222222222223 32  10.42013888888889 31.284722222222225  7.96875 29.854166666666668  C 5.517361111111112 28.42361111111111  3.5763888888888893 26.48263888888889  2.1458333333333335 24.03125  C 0.7152777777777777 21.579861111111107  0 18.90277777777778  0 16  C 0 13.097222222222218  0.7152777777777777 10.420138888888886  2.1458333333333335 7.96875  C 3.5763888888888893 5.517361111111111  5.517361111111112 3.5763888888888857  7.96875 2.145833333333332  C 10.42013888888889 0.715277777777775  13.097222222222223 0  16 0  C 18.90277777777778 0  21.579861111111114 0.715277777777775  24.03125 2.145833333333332  C 26.48263888888889 3.5763888888888857  28.423611111111114 5.517361111111111  29.854166666666668 7.96875  Z " fill-rule="nonzero" fill="#95f204" stroke="none" transform="matrix(1 0 0 1 131 765 )" />
  </g>
</svg>