<?xml version="1.0" encoding="utf-8"?>
<svg version="1.1" xmlns:xlink="http://www.w3.org/1999/xlink" width="33px" height="34px" xmlns="http://www.w3.org/2000/svg">
  <g transform="matrix(1 0 0 1 -369 -763 )">
    <path d="M 8.418569711538462 25.647569444444446  C 8.914362980769232 26.13946759259259  9.162259615384615 26.733024691358022  9.162259615384615 27.428240740740744  C 9.162259615384615 28.123456790123452  8.914362980769232 28.71701388888889  8.418569711538462 29.208912037037038  C 7.9227764423076925 29.700810185185183  7.324519230769232 29.946759259259256  6.6237980769230775 29.946759259259256  C 5.9362980769230775 29.946759259259256  5.341346153846155 29.69753086419753  4.8389423076923075 29.199074074074073  C 4.336538461538462 28.70061728395062  4.085336538461538 28.110339506172842  4.085336538461538 27.428240740740744  C 4.085336538461538 26.733024691358022  4.3332331730769225 26.13946759259259  4.8290264423076925 25.647569444444446  C 5.324819711538462 25.155671296296294  5.923076923076923 24.90972222222222  6.6237980769230775 24.90972222222222  C 7.324519230769232 24.90972222222222  7.9227764423076925 25.155671296296294  8.418569711538462 25.647569444444446  Z M 18.294771634615387 29.700810185185183  C 18.790564903846153 30.192708333333336  19.038461538461537 30.786265432098766  19.038461538461537 31.48148148148148  C 19.038461538461537 32.176697530864196  18.790564903846153 32.770254629629626  18.294771634615387 33.26215277777778  C 17.798978365384613 33.754050925925924  17.200721153846153 34  16.5 34  C 15.799278846153847 34  15.201021634615387 33.754050925925924  14.705228365384615 33.26215277777778  C 14.209435096153845 32.770254629629626  13.961538461538462 32.176697530864196  13.961538461538462 31.48148148148148  C 13.961538461538462 30.786265432098766  14.209435096153845 30.192708333333336  14.705228365384615 29.700810185185183  C 15.201021634615387 29.208912037037038  15.799278846153847 28.962962962962962  16.5 28.962962962962962  C 17.200721153846153 28.962962962962962  17.798978365384613 29.208912037037038  18.294771634615387 29.700810185185183  Z M 4.3332331730769225 15.848958333333334  C 4.8290264423076925 16.34085648148148  5.0769230769230775 16.934413580246915  5.0769230769230775 17.629629629629633  C 5.0769230769230775 18.32484567901234  4.8290264423076925 18.91840277777778  4.3332331730769225 19.410300925925927  C 3.8374399038461537 19.902199074074073  3.2391826923076925 20.148148148148145  2.5384615384615388 20.148148148148145  C 1.837740384615385 20.148148148148145  1.2394831730769231 19.902199074074073  0.7436899038461539 19.410300925925927  C 0.2478966346153846 18.91840277777778  0 18.32484567901234  0 17.629629629629633  C 0 16.934413580246915  0.2478966346153846 16.34085648148148  0.7436899038461539 15.848958333333334  C 1.2394831730769231 15.357060185185183  1.837740384615385 15.11111111111111  2.5384615384615388 15.11111111111111  C 3.2391826923076925 15.11111111111111  3.8374399038461537 15.357060185185183  4.3332331730769225 15.848958333333334  Z M 28.17097355769231 25.647569444444446  C 28.666766826923077 26.13946759259259  28.914663461538463 26.733024691358022  28.914663461538463 27.428240740740744  C 28.914663461538463 28.110339506172842  28.663461538461544 28.70061728395062  28.16105769230769 29.199074074074073  C 27.658653846153847 29.69753086419753  27.063701923076923 29.946759259259256  26.376201923076923 29.946759259259256  C 25.67548076923077 29.946759259259256  25.07722355769231 29.700810185185183  24.581430288461537 29.208912037037038  C 24.08563701923077 28.71701388888889  23.837740384615387 28.123456790123452  23.837740384615387 27.428240740740744  C 23.837740384615387 26.733024691358022  24.08563701923077 26.13946759259259  24.581430288461537 25.647569444444446  C 25.07722355769231 25.155671296296294  25.67548076923077 24.90972222222222  26.376201923076923 24.90972222222222  C 27.07692307692308 24.90972222222222  27.675180288461537 25.155671296296294  28.17097355769231 25.647569444444446  Z M 8.864783653846155 5.607638888888889  C 9.486177884615385 6.224151234567898  9.796875 6.9652777777777795  9.796875 7.831018518518518  C 9.796875 8.696759259259261  9.486177884615385 9.43788580246913  8.864783653846155 10.054398148148147  C 8.243389423076923 10.67091049382716  7.496394230769231 10.979166666666666  6.6237980769230775 10.979166666666666  C 5.7512019230769225 10.979166666666666  5.004206730769232 10.67091049382716  4.3828125 10.054398148148147  C 3.7614182692307696 9.43788580246913  3.4507211538461537 8.696759259259261  3.4507211538461537 7.831018518518518  C 3.4507211538461537 6.9652777777777795  3.7614182692307696 6.224151234567898  4.3828125 5.607638888888889  C 5.004206730769232 4.991126543209874  5.7512019230769225 4.682870370370371  6.6237980769230775 4.682870370370371  C 7.496394230769231 4.682870370370371  8.243389423076923 4.991126543209874  8.864783653846155 5.607638888888889  Z M 32.25631009615385 15.848958333333334  C 32.75210336538462 16.34085648148148  33.00000000000001 16.934413580246915  33 17.629629629629633  C 33.00000000000001 18.32484567901234  32.75210336538462 18.91840277777778  32.25631009615385 19.410300925925927  C 31.76051682692308 19.902199074074073  31.16225961538462 20.148148148148145  30.461538461538463 20.148148148148145  C 29.76081730769231 20.148148148148145  29.162560096153847 19.902199074074073  28.666766826923077 19.410300925925927  C 28.17097355769231 18.91840277777778  27.923076923076923 18.32484567901234  27.923076923076923 17.629629629629633  C 27.923076923076923 16.934413580246915  28.17097355769231 16.34085648148148  28.666766826923077 15.848958333333334  C 29.162560096153847 15.357060185185183  29.76081730769231 15.11111111111111  30.461538461538463 15.11111111111111  C 31.16225961538462 15.11111111111111  31.76051682692308 15.357060185185183  32.25631009615385 15.848958333333334  Z M 19.197115384615387 1.101851851851853  C 19.937500000000004 1.8364197530864166  20.30769230769231 2.728395061728392  20.30769230769231 3.7777777777777795  C 20.30769230769231 4.82716049382716  19.937500000000004 5.719135802469131  19.197115384615387 6.453703703703702  C 18.45673076923077 7.1882716049382696  17.557692307692307 7.555555555555555  16.5 7.555555555555555  C 15.442307692307693 7.555555555555555  14.543269230769234 7.1882716049382696  13.802884615384615 6.453703703703702  C 13.062500000000002 5.719135802469131  12.692307692307693 4.82716049382716  12.692307692307693 3.7777777777777795  C 12.692307692307693 2.728395061728392  13.062500000000002 1.8364197530864166  13.802884615384615 1.101851851851853  C 14.543269230769234 0.3672839506172856  15.442307692307693 0  16.5 0  C 17.557692307692307 0  18.45673076923077 0.3672839506172856  19.197115384615387 1.101851851851853  Z M 29.509615384615387 4.7222222222222205  C 30.382211538461537 5.587962962962964  30.818509615384613 6.624228395061727  30.818509615384613 7.831018518518518  C 30.818509615384613 9.050925925925927  30.382211538461537 10.090470679012343  29.509615384615387 10.949652777777779  C 28.63701923076923 11.808834876543209  27.59254807692308 12.238425925925927  26.376201923076923 12.238425925925927  C 25.146634615384613 12.238425925925927  24.098858173076923 11.808834876543209  23.232872596153847 10.949652777777779  C 22.36688701923077 10.090470679012343  21.93389423076923 9.050925925925927  21.93389423076923 7.831018518518518  C 21.93389423076923 6.624228395061727  22.36688701923077 5.587962962962964  23.232872596153847 4.7222222222222205  C 24.098858173076923 3.856481481481482  25.146634615384613 3.4236111111111103  26.376201923076923 3.4236111111111103  C 27.59254807692308 3.4236111111111103  28.63701923076923 3.856481481481482  29.509615384615387 4.7222222222222205  Z " fill-rule="nonzero" fill="#00ffff" stroke="none" transform="matrix(1 0 0 1 369 763 )" />
  </g>
</svg>