<?xml version="1.0" encoding="utf-8"?>
<svg version="1.1" xmlns:xlink="http://www.w3.org/1999/xlink" width="205px" height="56px" xmlns="http://www.w3.org/2000/svg">
  <defs>
    <mask fill="white" id="clip2400">
      <path d="M 0 9.750000538076165  L 9.250000227421424 0  L 195.49999998016142 0  L 205 9.75000010442136  L 205 46.749999987213414  L 194.74999999948864 56  L 9.750000043279329 56  L 0 46.749999991746336  L 0 9.750000538076165  Z " fill-rule="evenodd" />
    </mask>
  </defs>
  <g transform="matrix(1 0 0 1 -859 -195 )">
    <path d="M 0 9.750000538076165  L 9.250000227421424 0  L 195.49999998016142 0  L 205 9.75000010442136  L 205 46.749999987213414  L 194.74999999948864 56  L 9.750000043279329 56  L 0 46.749999991746336  L 0 9.750000538076165  Z " fill-rule="nonzero" fill="#040d34" stroke="none" transform="matrix(1 0 0 1 859 195 )" />
    <path d="M 0 9.750000538076165  L 9.250000227421424 0  L 195.49999998016142 0  L 205 9.75000010442136  L 205 46.749999987213414  L 194.74999999948864 56  L 9.750000043279329 56  L 0 46.749999991746336  L 0 9.750000538076165  Z " stroke-width="2" stroke="#66ffff" fill="none" transform="matrix(1 0 0 1 859 195 )" mask="url(#clip2400)" />
  </g>
</svg>