<?xml version="1.0" encoding="utf-8"?>
<svg version="1.1" xmlns:xlink="http://www.w3.org/1999/xlink" width="206px" height="206px" xmlns="http://www.w3.org/2000/svg">
  <defs>
    <mask fill="white" id="clip1462">
      <path d="M 103 0  C 159.88532860435055 0  206 46.11467139564945  206 103  C 206 159.88532860435055  159.88532860435055 206  103 206  C 46.11467139564945 206  0 159.88532860435055  0 103  C 0 46.11467139564945  46.11467139564945 0  103 0  Z " fill-rule="evenodd" />
    </mask>
  </defs>
  <g transform="matrix(1 0 0 1 -1136 -270 )">
    <path d="M 103 0  C 159.88532860435055 0  206 46.11467139564945  206 103  C 206 159.88532860435055  159.88532860435055 206  103 206  C 46.11467139564945 206  0 159.88532860435055  0 103  C 0 46.11467139564945  46.11467139564945 0  103 0  Z " fill-rule="nonzero" fill="#ffffff" stroke="none" fill-opacity="0" transform="matrix(1 0 0 1 1136 270 )" />
    <path d="M 103 0  C 159.88532860435055 0  206 46.11467139564945  206 103  C 206 159.88532860435055  159.88532860435055 206  103 206  C 46.11467139564945 206  0 159.88532860435055  0 103  C 0 46.11467139564945  46.11467139564945 0  103 0  Z " stroke-width="24.328964233398438" stroke-dasharray="206.79619598388672,97.31585693359375" stroke="#19ecff" fill="none" transform="matrix(1 0 0 1 1136 270 )" mask="url(#clip1462)" />
  </g>
</svg>