<?xml version="1.0" encoding="utf-8"?>
<svg version="1.1" xmlns:xlink="http://www.w3.org/1999/xlink" width="108px" height="80px" xmlns="http://www.w3.org/2000/svg">
  <defs>
    <linearGradient gradientUnits="userSpaceOnUse" x1="53.95412844036687" y1="0" x2="10.651376146788238" y2="55.59633027522864" id="LinearGradient463">
      <stop id="Stop464" stop-color="#ffffff" stop-opacity="0.2" offset="0" />
      <stop id="Stop465" stop-color="#0b0b0b" offset="0.96" />
      <stop id="Stop466" stop-color="#000000" offset="1" />
    </linearGradient>
    <mask fill="white" id="clip467">
      <path d="M 0.2408026755853143 80  L 0.2408026755853143 13.394495412843298  L 10.284403669726089 0  L 108 0  L 108 80  L 0.2408026755853143 80  Z " fill-rule="evenodd" />
    </mask>
  </defs>
  <g transform="matrix(1 0 0 1 -454 -1030 )">
    <path d="M 0.2408026755853143 80  L 0.2408026755853143 13.394495412843298  L 10.284403669726089 0  L 108 0  L 108 80  L 0.2408026755853143 80  Z " fill-rule="nonzero" fill="#ffffff" stroke="none" fill-opacity="0" transform="matrix(1 0 0 1 454 1030 )" />
    <path d="M 0.2408026755853143 80  L 0.2408026755853143 13.394495412843298  L 10.284403669726089 0  L 108 0  L 108 80  L 0.2408026755853143 80  Z " stroke-width="2" stroke="url(#LinearGradient463)" fill="none" transform="matrix(1 0 0 1 454 1030 )" mask="url(#clip467)" />
  </g>
</svg>