<?xml version="1.0" encoding="utf-8"?>
<svg version="1.1" xmlns:xlink="http://www.w3.org/1999/xlink" width="153px" height="78px" xmlns="http://www.w3.org/2000/svg">
  <defs>
    <linearGradient gradientUnits="userSpaceOnUse" x1="71.5" y1="0" x2="71.5" y2="68" id="LinearGradient102">
      <stop id="Stop103" stop-color="#308e99" offset="0" />
      <stop id="Stop104" stop-color="#141919" offset="1" />
    </linearGradient>
    <mask fill="white" id="clip105">
      <path d="M 0.31884057971011404 68  L 0 11.15686274510017  L 13.132653061227641 0  L 143 0  L 143 57.82352941176532  L 129.29511804721776 68  L 0.31884057971011404 68  Z " fill-rule="evenodd" />
    </mask>
    <filter x="137px" y="1036px" width="153px" height="78px" filterUnits="userSpaceOnUse" id="filter106">
      <feOffset dx="5" dy="5" in="SourceAlpha" result="shadowOffsetInner" />
      <feGaussianBlur stdDeviation="2.5" in="shadowOffsetInner" result="shadowGaussian" />
      <feComposite in2="shadowGaussian" operator="atop" in="SourceAlpha" result="shadowComposite" />
      <feColorMatrix type="matrix" values="0 0 0 0 0  0 0 0 0 0  0 0 0 0 0  0 0 0 0.34901960784313724 0  " in="shadowComposite" />
    </filter>
    <g id="widget107">
      <path d="M 0.31884057971011404 68  L 0 11.15686274510017  L 13.132653061227641 0  L 143 0  L 143 57.82352941176532  L 129.29511804721776 68  L 0.31884057971011404 68  Z " fill-rule="nonzero" fill="url(#LinearGradient102)" stroke="none" transform="matrix(1 0 0 1 137 1036 )" />
      <path d="M 0.31884057971011404 68  L 0 11.15686274510017  L 13.132653061227641 0  L 143 0  L 143 57.82352941176532  L 129.29511804721776 68  L 0.31884057971011404 68  Z " stroke-width="2" stroke="#797979" fill="none" stroke-opacity="0.4980392156862745" transform="matrix(1 0 0 1 137 1036 )" mask="url(#clip105)" />
    </g>
  </defs>
  <g transform="matrix(1 0 0 1 -137 -1036 )">
    <use xlink:href="#widget107" filter="url(#filter106)" />
    <use xlink:href="#widget107" />
  </g>
</svg>