<?xml version="1.0" encoding="utf-8"?>
<svg version="1.1" xmlns:xlink="http://www.w3.org/1999/xlink" width="13px" height="14px" xmlns="http://www.w3.org/2000/svg">
  <g transform="matrix(1 0 0 1 -797 -358 )">
    <path d="M 12.771837022569443 1.155706091772152  C 12.95297152828597 1.020703773303433  13.033073458926612 0.7916802777805321  12.974609375 0.575949367088608  C 12.917070951254626 0.3597520925068784  12.732791504436035 0.1986752464273231  12.50735134548611 0.1675237341772152  C 10.779774114714451 -0.05714250383062483  9.027306068043933 -0.02037191282947337  7.311089409722222 0.276552610759494  C 4.867241753472222 0.7161293512658228  2.938259548611111 1.6800830696202531  1.5576443142361112 3.1424545094936716  C -1.0819227430555556 5.9529766613924044  0.3551161024305555 10.331437895569621  0.718343098958334 11.291930379746837  C 0.5147724296624421 11.980547511688739  0.3899886018925329 12.68927879147902  0.3462999131944438 13.40501384493671  C 0.3460707712373387 13.41144393186646  0.34595617399647727 13.417877459154248  0.34595617399647727 13.424311478050502  C 0.34595617399647727 13.722602714167499  0.5873702145230687 13.966948953879971  0.891140407986111 13.976117484177216  L 0.9105360243055556 13.976117484177216  C 1.2133921093112592 13.975397613035852  1.4616526491790507 13.740132345022943  1.4730088975694444 13.443087420886076  C 1.4730088975694444 13.38943829113924  1.7269151475694444 8.135284810126585  6.880859375 5.032288370253166  C 7.0475720148584315 4.931409225387703  7.149092577973162 4.7529212444329305  7.149092577973162 4.560695213607596  C 7.149092577973162 4.25472149327718  6.896376498789024 4.006680784594015  6.584635416666664 4.006680784594015  C 6.480020111269839 4.006680784594015  6.377463041688973 4.035216235314304  6.288411458333333 4.089102056962026  C 4.126021781432065 5.36491886808015  2.412134592930065 7.258427384695571  1.3760308159722217 9.516317246835445  C 1.023383246527777 7.9483781645569636  0.8470594618055549 5.535897943037976  2.386366102430556 3.8935423259493693  C 4.893690321180555 1.2249307753164576  9.09548611111111 1.0570609177215209  11.174343532986109 1.1608979430379764  C 10.315646701388886 2.2563785601265836  10.16753472222222 3.5128065664556978  10.03176540798611 4.73462223101266  C 9.844862196180555 6.354479825949369  9.679117838541666 7.8860759493670916  7.998752170138888 9.357100474683547  C 5.9921875 11.118868670886076  3.1304524739583326 10.812549446202532  3.1022406684027777 10.809088212025317  C 3.0843455379386358 10.807404574355186  3.0663786512182316 10.806561312638248  3.0484014935305335 10.806561312638248  C 2.7367824940600336 10.806561312638248  2.4841653824194223 11.054504884725624  2.4841653824194223 11.360358780992678  C 2.4841653824194223 11.634488678563791  2.688500711042946 11.86736826148431  2.964708116319446 11.908030063291141  C 3.198912241160265 11.93312379751817  3.434416933364071 11.94468118455524  3.670003255208333 11.94264240506329  C 4.793185763888888 11.94264240506329  6.993706597222222 11.722854034810126  8.756944444444445 10.18087420886076  C 10.742350260416666 8.429489715189874  10.960991753472223 6.532733386075949  11.153184678819445 4.8592266613924044  C 11.329508463541666 3.3985858386075947  11.465277777777777 2.138696598101266  12.771837022569443 1.155706091772152  Z " fill-rule="nonzero" fill="#55cb23" stroke="none" transform="matrix(1 0 0 1 797 358 )" />
  </g>
</svg>