<?xml version="1.0" encoding="utf-8"?>
<svg version="1.1" xmlns:xlink="http://www.w3.org/1999/xlink" width="21px" height="20px" xmlns="http://www.w3.org/2000/svg">
  <g transform="matrix(1 0 0 1 -537 -367 )">
    <path d="M 3.603755859375 18.21574  L 3.603755859375 11.890540000000001  C 3.603755859375 8.10694  6.749736328125 5.0383  10.63330078125 5.0383  C 14.516865234375 5.0383  17.662866210937498 8.106959999999999  17.662866210937498 11.890540000000001  L 17.662866210937498 18.21574  L 20.062526367187502 18.21574  C 20.5608662109375 18.21574  20.964870117187502 18.609740000000002  20.964870117187502 19.09574  C 20.964870117187502 19.58174  20.5608662109375 19.97574  20.062526367187502 20  L 0.9176630859375 20  C 0.41930273437500004 19.97574  0.015319335937499998 19.58174  0.015319335937499998 19.09574  C 0.015319335937499998 18.609740000000002  0.41930273437500004 18.21574  0.9176630859375 18.21574  L 3.6037763671874994 18.21574  Z M 11.142181640625001 7.799660000000001  L 7.674782226562501 13.36664  L 10.447869140625 13.36664  L 9.7535771484375 17.54188  L 13.220976562499999 11.9749  L 10.4478486328125 11.9749  L 11.1421611328125 7.79966  Z M 16.45555078125 1.684460000000002  L 16.45965234375 1.6844600000000014  C 16.7852138671875 1.8692000000000015  16.8964482421875 2.2769000000000017  16.7089453125 2.5942200000000017  L 15.462521484375 4.706940000000001  L 14.284060546875 4.042180000000002  L 15.530525390625 1.929460000000002  C 15.715916015625 1.6121600000000023  16.1320810546875 1.5037200000000017  16.45555078125 1.684460000000002  Z M 10.63125 0.12  C 11.039191406250001 0.12  11.368833984375 0.4192400000000001  11.368833984375 0.79078  L 11.368833984375 3.1846400000000004  L 9.8936865234375 3.1846400000000004  L 9.8936865234375 0.78878  C 9.893666015625001 0.4192600000000001  10.22330859375 0.12  10.63125 0.12  Z M 4.8069697265624995 1.6844599999999998  C 5.130439453125 1.5017  5.546583984374999 1.6101400000000001  5.7340869140625 1.92546  C 5.7340869140625 1.92546  5.7340869140625 1.9274599999999997  5.736137695312501 1.9274599999999997  L 6.9826025390625 4.040179999999999  L 5.80412109375 4.7049199999999995  L 4.55765625 2.5921999999999996  C 4.3702148437499995 2.2748799999999996  4.481449218749999 1.8691999999999995  4.80694921875 1.6844599999999996  Z M 0.5422265625 5.8597  C 0.7276376953125 5.5423599999999995  1.143802734375 5.431900000000001  1.46934375 5.614660000000001  C 1.46934375 5.614660000000001  1.4713945312499999 5.614660000000001  1.4713945312499999 5.616680000000001  L 3.6305185546875003 6.837720000000001  L 2.9506435546875003 7.99048  L 0.7914990234375 6.7674  C 0.4659990234375 6.5846599999999995  0.3547236328125 6.17696  0.5422265625 5.85966  Z M 20.724375000000002 5.8597  C 20.911877929687503 6.1769799999999995  20.800602539062503 6.5846800000000005  20.4751025390625 6.76942  L 18.3159375 7.988460000000001  L 17.636062499999998 6.835719999999999  L 19.7951865234375 5.614660000000001  C 20.11865625 5.43192  20.534800781250002 5.540360000000001  20.7223037109375 5.85566  C 20.7223037109375 5.857660000000001  20.724354492187498 5.857660000000001  20.724354492187498 5.85966  Z " fill-rule="nonzero" fill="#f59a23" stroke="none" transform="matrix(1 0 0 1 537 367 )" />
  </g>
</svg>