<svg xmlns="http://www.w3.org/2000/svg" width="18.688" height="24.926" viewBox="0 0 18.688 24.926">
  <g id="组_182" data-name="组 182" transform="translate(-6757 -8760)">
    <g id="normal_u229" transform="translate(6674.894 8583.954)">
      <path id="路径_102" data-name="路径 102" d="M12.28,23.025c-1.525,1.745-2.355,1.947-2.846,1.947s-1.29-.2-2.807-1.921A29.243,29.243,0,0,1,3.733,19,33.524,33.524,0,0,1,1.22,13.99,13.78,13.78,0,0,1,.108,9.178c0-.053,0-.114,0-.176A8.6,8.6,0,0,1,.849,5.495,8.916,8.916,0,0,1,2.86,2.649,9.475,9.475,0,0,1,9.438.046a9.511,9.511,0,0,1,6.376,2.416,8.781,8.781,0,0,1,2.932,5.9,2.992,2.992,0,0,1,.048.522,14.318,14.318,0,0,1-1.1,4.923,33.889,33.889,0,0,1-2.506,5.1A29.079,29.079,0,0,1,12.28,23.025ZM9.438,1.951h0A7.27,7.27,0,0,0,1.983,9.006c0,.049,0,.1,0,.146v.021c0,2,1.192,5.208,3.189,8.575A29.256,29.256,0,0,0,7.807,21.53a5.817,5.817,0,0,0,1.631,1.524,5.622,5.622,0,0,0,1.642-1.528,28.589,28.589,0,0,0,2.644-3.842c2-3.428,3.193-6.715,3.193-8.8a1.072,1.072,0,0,0-.022-.2l-.013-.064,0-.065A6.871,6.871,0,0,0,14.57,3.889,7.653,7.653,0,0,0,9.438,1.951Z" transform="translate(82 176)" fill="#34d3f3"/>
    </g>
    <circle id="椭圆_28" data-name="椭圆 28" cx="2" cy="2" r="2" transform="translate(6764 8766)" fill="#2ecdf1"/>
  </g>
</svg>
