<?xml version="1.0" encoding="utf-8"?>
<svg version="1.1" xmlns:xlink="http://www.w3.org/1999/xlink" width="22px" height="22px" xmlns="http://www.w3.org/2000/svg">
  <g transform="matrix(1 0 0 1 -1480 -370 )">
    <path d="M 22 11  C 22 17.074749999999998  17.074749999999998 22  11 22  C 4.92525 22  0 17.074749999999998  0 11  C 0 4.92525  4.92525 0  11 0  C 17.074749999999998 0  22 4.92525  22 11  Z M 20.166666673828125 10.999999999999998  C 20.166666673828125 5.93725  16.06275 1.833333326171875  11 1.8333333261718758  C 5.93725 1.833333326171875  1.833333326171875 5.93725  1.833333326171875 11  C 1.833333326171875 16.06275  5.93725 20.166666673828125  11 20.166666673828125  C 16.06275 20.166666673828125  20.166666673828125 16.062749999999998  20.166666673828125 10.999999999999998  Z M 15.268916673828123 13.972749999999998  C 15.626766784786318 14.330708199652403  15.626766784786318 14.910958474175722  15.268916673828127 15.268916673828127  C 14.910958474175722 15.626766784786321  14.330708199652406 15.626766784786321  13.972750000000001 15.268916673828125  L 11 12.296166673828123  L 8.027250000000002 15.268916673828123  C 7.856347499931061 15.433979787965201  7.628030381867315 15.52623573678012  7.390430937048004 15.52623573678012  C 6.884169912414615 15.52623573678012  6.473764263219879 15.115830087585387  6.473764263219879 14.609569062951994  C 6.473764263219879 14.371969618132685  6.566020212034797 14.143652500068939  6.731083326171875 13.972749999999998  L 9.703833326171875 11  L 6.731083326171875 8.027250000000002  C 6.566020212034791 7.856347499931061  6.473764263219867 7.628030381867307  6.473764263219867 7.390430937047993  C 6.473764263219867 6.884169912414602  6.884169912414602 6.473764263219867  7.390430937047993 6.473764263219867  C 7.628030381867307 6.473764263219867  7.856347499931061 6.566020212034791  8.027249999999999 6.731083326171875  L 11 9.703833326171875  L 13.972749999999998 6.731083326171875  C 14.144632387739847 6.559200938432029  14.377754933039299 6.462638418474058  14.62083333691406 6.462638418474058  C 15.127017909202387 6.462638418474058  15.537361581525941 6.872982090797611  15.537361581525941 7.37916666308594  C 15.537361581525941 7.6222450669607005  15.44079906156797 7.855367612260155  15.268916673828123 8.027249999999999  L 12.296166673828123 11  L 15.268916673828123 13.972749999999998  Z " fill-rule="nonzero" fill="#ffffff" stroke="none" fill-opacity="0.6980392156862745" transform="matrix(1 0 0 1 1480 370 )" />
  </g>
</svg>