<svg width="33" height="31" viewBox="0 0 33 31" fill="none" xmlns="http://www.w3.org/2000/svg">
<path d="M32.9692 29.6219C32.8526 29.1454 32.7147 28.6741 32.556 28.2095C32.4996 28.0459 32.4307 27.8871 32.3706 27.7247C32.2619 27.4276 32.145 27.1335 32.02 26.8426C31.9373 26.6556 31.8409 26.4722 31.7507 26.2877C31.6255 26.0318 31.499 25.7771 31.36 25.5273C31.2536 25.3354 31.1371 25.1484 31.0231 24.9614C30.9342 24.815 30.8553 24.6649 30.7614 24.5209C30.7025 24.4323 30.6362 24.3487 30.5773 24.2613C30.5222 24.1813 30.4771 24.0952 30.4208 24.0165C30.4057 23.9943 30.3819 23.9845 30.3657 23.9648C29.4367 22.6515 28.3198 21.4768 27.0495 20.4767C26.5536 20.088 26.0314 19.7385 25.4991 19.41C25.4816 19.3977 25.4728 19.3805 25.4553 19.3694C25.32 19.287 25.1798 19.2144 25.042 19.1357C24.8855 19.0458 24.7302 18.9536 24.5699 18.8674C24.3194 18.7346 24.0639 18.6115 23.8085 18.4897C23.6757 18.427 23.5442 18.3593 23.4102 18.299C23.0297 18.1317 22.6429 17.9786 22.2506 17.8401C22.2243 17.8303 22.2005 17.818 22.1742 17.8106C22.059 17.77 21.9387 17.7417 21.8235 17.7048C21.6708 17.6543 21.518 17.6026 21.3627 17.5571C22.8089 16.7301 24.0082 15.5438 24.8402 14.1174C25.6722 12.691 26.1076 11.0747 26.1027 9.43067C26.1059 8.19176 25.8591 6.96452 25.3765 5.81991C24.8939 4.6753 24.1852 3.63603 23.2913 2.76217C22.4019 1.88383 21.3441 1.18747 20.179 0.713353C19.0139 0.23924 17.7647 -0.00320654 16.5037 3.772e-05H16.5011H16.4999C15.2388 -0.0034783 13.9895 0.238845 12.8244 0.712973C11.6593 1.1871 10.6015 1.88361 9.71229 2.76217C8.81815 3.63586 8.10927 4.67511 7.62668 5.81975C7.14409 6.9644 6.89737 8.19172 6.90081 9.43067C6.89668 10.6697 7.14308 11.8972 7.62571 13.042C8.10834 14.1867 8.81758 15.2259 9.71229 16.0992C10.2959 16.6737 10.9471 17.1548 11.6409 17.5571C11.4843 17.6026 11.3315 17.6556 11.1763 17.7048C11.061 17.7429 10.9433 17.7712 10.8281 17.8106C10.8018 17.8192 10.778 17.8315 10.753 17.8401C10.361 17.9779 9.97277 18.1317 9.59081 18.3003C9.45932 18.3581 9.33158 18.4258 9.20134 18.486C8.94085 18.6091 8.68162 18.7321 8.4274 18.8687C8.27086 18.9523 8.11933 19.0422 7.96654 19.1307C7.82628 19.2107 7.68226 19.2845 7.54451 19.3694C7.52572 19.3805 7.51696 19.399 7.49943 19.4113C6.96719 19.741 6.44622 20.0892 5.9503 20.4767C4.67936 21.4761 3.56239 22.651 2.63414 23.9648C2.61786 23.9845 2.59406 23.9943 2.57904 24.0165C2.52268 24.0952 2.4776 24.1813 2.42249 24.2613C2.36364 24.3487 2.29601 24.4323 2.2384 24.5209C2.14448 24.6649 2.06558 24.815 1.97667 24.9614C1.8627 25.1484 1.74624 25.3354 1.63979 25.5273C1.50078 25.7771 1.37555 26.0318 1.24906 26.2877C1.1589 26.4722 1.06372 26.6556 0.979814 26.8426C0.850825 27.1317 0.74062 27.4282 0.629163 27.7247C0.567799 27.8871 0.498921 28.0459 0.443819 28.2095C0.286025 28.6733 0.147017 29.1446 0.0305509 29.6219C-0.0821585 30.0895 0.125728 30.5508 0.510192 30.8043C0.621184 30.8804 0.744977 30.9366 0.875871 30.9704C1.11655 31.0247 1.3687 31.0004 1.59404 30.9011C1.81937 30.8019 2.0056 30.6331 2.12444 30.4204C2.17845 30.333 2.21976 30.2386 2.24717 30.1399C2.35111 29.713 2.47384 29.2934 2.61535 28.8813C2.63789 28.8148 2.6667 28.7533 2.68924 28.6881C2.81573 28.3362 2.95098 27.9868 3.10501 27.6448C3.1238 27.6029 3.14634 27.5636 3.16512 27.5205C3.33794 27.1489 3.52204 26.7823 3.72617 26.4267L3.72867 26.423C3.95169 26.0346 4.19281 25.6565 4.45126 25.2899L4.45627 25.2763C5.5887 23.6672 7.0446 22.303 8.73422 21.2679C8.73923 21.2642 8.74549 21.2654 8.7505 21.2617C9.83804 20.5974 11.0098 20.0766 12.2357 19.7127C12.3372 19.6832 12.4373 19.65 12.54 19.6229C12.7504 19.5651 12.9646 19.5146 13.1775 19.4666C13.7495 19.334 14.3297 19.2383 14.9145 19.18C15.0572 19.164 15.2 19.1467 15.3427 19.1357C15.7247 19.1074 16.1092 19.0877 16.4986 19.0877C16.8881 19.0877 17.2713 19.1074 17.6545 19.1357C17.7973 19.1467 17.9413 19.164 18.0841 19.18C18.6676 19.2377 19.2467 19.3335 19.8173 19.4666C20.0327 19.5146 20.2469 19.5651 20.4598 19.6229C20.5587 19.65 20.6564 19.6819 20.754 19.7115C21.9776 20.0757 23.1523 20.5912 24.2468 21.2617C24.2518 21.2654 24.2581 21.2642 24.2631 21.2679C25.9535 22.302 27.4096 23.6664 28.541 25.2763C28.5448 25.2813 28.5448 25.2862 28.5473 25.2899C29.0495 26.0022 29.479 26.7515 29.8384 27.5303L29.8923 27.6398C30.0501 27.988 30.1878 28.3461 30.3181 28.7066C30.3381 28.7644 30.3631 28.8185 30.3832 28.8763C30.5234 29.2897 30.6487 29.7118 30.7514 30.1387C30.8211 30.4276 31.0048 30.6775 31.2621 30.8334C31.3895 30.9106 31.5311 30.9623 31.6789 30.9857C31.8267 31.0091 31.9777 31.0037 32.1233 30.9698C32.2689 30.9359 32.4063 30.8741 32.5276 30.788C32.649 30.7019 32.7519 30.5931 32.8304 30.468C32.909 30.3428 32.9616 30.2037 32.9855 30.0585C33.0093 29.9134 33.0038 29.765 32.9692 29.6219ZM23.8235 9.42821C23.8212 11.3355 23.049 13.1641 21.6763 14.5129C20.3037 15.8618 18.4426 16.6207 16.5011 16.6233C14.5597 16.6207 12.6986 15.8618 11.3259 14.5129C9.95328 13.1641 9.18111 11.3355 9.17879 9.42821C9.18112 7.52098 9.95332 5.69252 11.326 4.3439C12.6987 2.99529 14.5599 2.23663 16.5011 2.23435C18.4424 2.23663 20.3036 2.99529 21.6763 4.3439C23.049 5.69252 23.8212 7.52098 23.8235 9.42821Z" fill="#8A8A8A"/>
</svg>
