<svg width="30" height="36" viewBox="0 0 30 36" fill="none" xmlns="http://www.w3.org/2000/svg">
<path d="M5.45455 12.6V9.45C5.45455 4.23045 9.72727 0 15 0C20.2727 0 24.5455 4.2282 24.5455 9.45V12.6H25.0005C27.7605 12.6 30 14.8189 30 17.55V31.05C30 33.7846 27.7641 36 25.0005 36H5C2.23955 36 0 33.781 0 31.05V17.55C0 14.8153 2.23591 12.6 4.99955 12.6H5.45455ZM8.18182 12.6H21.8182V9.45C21.8182 5.7195 18.7668 2.7 15 2.7C11.2336 2.7 8.18182 5.72175 8.18182 9.45V12.6ZM2.72727 17.55V31.05C2.72727 32.2902 3.74636 33.3 4.99955 33.3H25C25.2986 33.3004 25.5943 33.2424 25.8702 33.1295C26.1461 33.0165 26.3967 32.8508 26.6079 32.6418C26.819 32.4328 26.9864 32.1846 27.1005 31.9115C27.2145 31.6383 27.2731 31.3456 27.2727 31.05V17.55C27.2727 16.3098 26.2536 15.3 25.0005 15.3H5C4.70144 15.2996 4.40574 15.3576 4.12984 15.4705C3.85394 15.5835 3.60325 15.7492 3.39214 15.9582C3.18103 16.1672 3.01363 16.4154 2.89954 16.6885C2.78545 16.9617 2.72691 17.2544 2.72727 17.55Z" fill="#8A8A8A"/>
</svg>
