<?xml version="1.0" encoding="utf-8"?>
<svg version="1.1" xmlns:xlink="http://www.w3.org/1999/xlink" width="14px" height="21px" xmlns="http://www.w3.org/2000/svg">
  <defs>
    <linearGradient gradientUnits="userSpaceOnUse" x1="0" y1="10.5" x2="14" y2="10.5" id="LinearGradient2569">
      <stop id="Stop2570" stop-color="#009bf2" offset="0" />
      <stop id="Stop2571" stop-color="#00c1ff" offset="1" />
    </linearGradient>
    <linearGradient gradientUnits="userSpaceOnUse" x1="0" y1="10.5" x2="14" y2="10.5" id="LinearGradient2572">
      <stop id="Stop2573" stop-color="#009bf2" offset="0" />
      <stop id="Stop2574" stop-color="#00c1ff" offset="1" />
    </linearGradient>
    <mask fill="white" id="clip2575">
      <path d="M 0 18.25  L 2.25 21  L 13.25 10.5  L 2.25 0  L 0 2.75  L 8 10.5  L 0 18.25  Z " fill-rule="evenodd" />
    </mask>
  </defs>
  <g transform="matrix(1 0 0 1 -128 -47 )">
    <path d="M 0 18.25  L 2.25 21  L 13.25 10.5  L 2.25 0  L 0 2.75  L 8 10.5  L 0 18.25  Z " fill-rule="nonzero" fill="url(#LinearGradient2569)" stroke="none" transform="matrix(1 0 0 1 128 47 )" />
    <path d="M 0 18.25  L 2.25 21  L 13.25 10.5  L 2.25 0  L 0 2.75  L 8 10.5  L 0 18.25  Z " stroke-width="2" stroke="url(#LinearGradient2572)" fill="none" transform="matrix(1 0 0 1 128 47 )" mask="url(#clip2575)" />
  </g>
</svg>