<?xml version="1.0" encoding="utf-8"?>
<svg version="1.1" xmlns:xlink="http://www.w3.org/1999/xlink" width="41px" height="42px" xmlns="http://www.w3.org/2000/svg">
  <defs>
    <linearGradient gradientUnits="userSpaceOnUse" x1="20.5" y1="0" x2="20.5" y2="42" id="LinearGradient2576">
      <stop id="Stop2577" stop-color="#ff0605" offset="0" />
      <stop id="Stop2578" stop-color="#fe6363" offset="1" />
    </linearGradient>
    <linearGradient gradientUnits="userSpaceOnUse" x1="20.5" y1="0" x2="20.5" y2="42" id="LinearGradient2579">
      <stop id="Stop2580" stop-color="#ff0605" offset="0" />
      <stop id="Stop2581" stop-color="#fe6363" offset="1" />
    </linearGradient>
    <mask fill="white" id="clip2582">
      <path d="M 40.25 21  L 20.25 0  L 0.5 21  L 10 21  L 10 41.25  L 30 41.25  L 30 21  L 40.25 21  Z " fill-rule="evenodd" />
    </mask>
  </defs>
  <g transform="matrix(1 0 0 1 -458 -116 )">
    <path d="M 40.25 21  L 20.25 0  L 0.5 21  L 10 21  L 10 41.25  L 30 41.25  L 30 21  L 40.25 21  Z " fill-rule="nonzero" fill="url(#LinearGradient2576)" stroke="none" transform="matrix(1 0 0 1 458 116 )" />
    <path d="M 40.25 21  L 20.25 0  L 0.5 21  L 10 21  L 10 41.25  L 30 41.25  L 30 21  L 40.25 21  Z " stroke-width="2" stroke="url(#LinearGradient2579)" fill="none" transform="matrix(1 0 0 1 458 116 )" mask="url(#clip2582)" />
  </g>
</svg>