<?xml version="1.0" standalone="no"?><!DOCTYPE svg PUBLIC "-//W3C//DTD SVG 1.1//EN" "http://www.w3.org/Graphics/SVG/1.1/DTD/svg11.dtd"><svg t="1700200869160" class="icon" viewBox="0 0 5120 1024" version="1.1" xmlns="http://www.w3.org/2000/svg" p-id="36853" xmlns:xlink="http://www.w3.org/1999/xlink" width="640" height="128"><path d="M4638.72 307.2v61.44c-40.96 0-102.4 61.44-102.4 143.36s71.68 143.36 102.4 143.36V716.8c-71.68 0-163.84-92.16-163.84-204.8s92.16-204.8 163.84-204.8zM481.28 307.2C552.96 307.2 645.12 399.36 645.12 512S552.96 716.8 481.28 716.8V655.36C522.24 655.36 583.68 593.92 583.68 512S512 368.64 481.28 368.64V307.2z" fill="#34d3f3" p-id="36854"></path><path d="M4506.624 552.96h-296.96V460.8h296.96zM4143.104 552.96h-296.96V460.8h296.96zM3778.56 552.96H3481.6V460.8h296.96zM3426.304 552.96h-296.96V460.8h296.96zM3061.76 552.96H2764.8V460.8h296.96zM2699.264 552.96h-296.96V460.8h296.96zM2334.72 552.96h-296.96V460.8h296.96zM1981.44 552.96h-296.96V460.8h296.96zM1617.92 552.96h-296.96V460.8h296.96zM1254.4 552.96h-296.96V460.8h296.96zM890.88 552.96H593.92V460.8h296.96z" fill="#34d3f3" p-id="36855"></path></svg>